<svg version="1.0" xmlns="http://www.w3.org/2000/svg" width="933.333" height="933.333" viewBox="0 0 700 700"><path d="M591.9 89.3c-1.9 1.2-4.1 3.7-4.9 5.4l-1.5 3.1-2.3-1.9c-4.8-3.9-15-5.1-20.2-2.4-5.1 2.6-6.5 8.2-3.5 13.9.9 1.6 1.4 3 1.3 3-.2.1-1.6.7-3.1 1.4-6.1 2.6-9.4 18.2-5.4 25.8 2.7 5.3 9 6.2 13.8 2 1.8-1.5 2.6-1.6 4.6-.7 4.7 2.1 11.5-2.4 23.3-15.4.8-.9 3.7-3.1 6.5-4.9 5.7-3.8 10.5-11.6 10.5-17.3 0-7.3-6.5-14.3-13.3-14.3-1.3 0-3.9 1-5.8 2.3zM344.2 107.6c-3 1.5-6.3 4.1-7.5 5.9-2.2 3.3-2.3 3.3-3.6 1.4-1.7-2.9-8.8-5.9-13.9-5.9-12.3 0-22.9 11.6-26.9 29.3-.9 4-1.7 7.3-1.8 7.5-.1.1-1.6-.3-3.4-.9-3.7-1.3-8.6.2-10.2 3.2-.9 1.8-1.1 1.8-4.7-.1-7.6-4.1-19.2-1.2-23.9 5.9-2.8 4.2-2.9 8.2-.3 14 1.1 2.4 2 4.5 2 4.7 0 .2-1.9.4-4.3.4-9.5 0-16.1 8.8-16.3 21.8-.2 7.1-.2 7.2-3.8 9.7-2.2 1.5-5.1 2.5-7.2 2.5-1.9 0-4.8.7-6.3 1.5-2.8 1.4-6.1 6.8-6.1 10 0 .9-1.4 3.4-3 5.5-5.4 6.8-7.5 12.7-7.5 21 0 9 3 16.3 9.5 23.4 4.1 4.5 4.4 5.1 10.1 27.8 3.2 12.8 5.9 23.9 5.9 24.5 0 .7-19.9 16.2-44.2 34.4l-44.1 33.2-9.6-1.5c-6.9-1-9.5-1.8-9.3-2.7.1-.7 18.8-39.3 41.4-85.8 22.6-46.4 40.9-84.5 40.7-84.7-.2-.2-10.3-5.6-22.4-12.1l-22-11.7-14.9-.2-14.9-.1L71.8 301C44.5 362.3 22 412.9 22 413.5c0 .5 5.1 2.8 11.2 5 7.7 2.7 13.8 5.7 19.3 9.5 4.4 3 14.2 8.6 21.8 12.5l13.9 7 49.7 68.4 49.7 68.4 10 2.9c5.4 1.5 10.4 2.6 11.1 2.4.6-.3 18.3-12.4 39.3-26.9l38.1-26.5 9.3 4.9c11.2 5.9 19.9 9 36.1 12.9 18.3 4.4 28.6 5.4 54 5.4 23.7-.1 38.8-1.5 56.3-5.3l8.3-1.8-.7 5.3c-.9 7.5 1.7 12.3 12.4 22.6 9.7 9.3 17.1 14.2 28.2 18.7 20.1 8 50.9 14.1 71.4 14.1 14.8 0 29.8-5 38.5-12.7l4.2-3.8 27.9-90c15.6-50.3 28.6-90.4 29.4-91 .8-.5 2.7-1.7 4.3-2.6 2.4-1.3 3.5-3.6 8-17.5 5.7-17.4 5.8-19.7 1.4-26.7-2.8-4.5-11.2-12.4-18.9-17.6-9.8-6.6-31.2-16.5-47.3-21.9l-14.6-4.8 6.2-28.3c5.6-25.3 6.5-28.5 9-31.1 1.6-1.7 4.4-3.3 6.3-3.6 1.9-.4 12.5.4 23.7 1.6l20.3 2.3 3.1-2.2c5.6-4.1 6.1-13.6.7-18-.9-.8-10.4-2.5-23.2-4.3l-21.5-2.9-4.5 2.1c-3.7 1.8-4.9 2-7.6 1.1-3-1.1-3.3-.9-6 2.4-1.6 1.9-4.4 3.8-6.1 4.3-2.4.6-3.3 1.5-3.5 3.3-.6 5-1.2 6.7-3.8 9.3-2.4 2.3-3.5 6.1-8.9 30.2-3.4 15.1-6.5 27.7-6.7 28-.5.4-14.8-2.3-15.5-3-.2-.1 1.2-14.1 3.1-31l3.5-30.8 4.6-4.9c10.1-10.8 12.9-24.7 7.3-35.5-3.3-6.3-11.1-13.4-18.4-16.9-4.4-2.1-5.4-3-5.4-5.1 0-5.3-7-9.1-12-6.4-1.5.8-1.9.5-2.4-1.4-.3-1.2-1.8-3.5-3.2-4.9-3.3-3.4-9.2-3.7-13.4-.7-3.1 2.2-3.4 2-4.5-2.8-1.5-7-10.7-12.3-18-10.3l-3.5.9v-4.1c0-5.7-3.6-10.8-9.7-13.8-3.9-1.9-6.4-2.4-12.8-2.4-4.4.1-8.9.4-10 .8-1.6.5-2.6-.2-5.1-3.6-1.8-2.4-5.4-5.5-8.5-7.2-4.9-2.7-6.3-3-14.9-3.1-5.3 0-10.5-.6-11.7-1.2-1.2-.7-3.7-1.2-5.6-1.2-2.9 0-3.7-.5-4.7-2.9-1.6-3.9-6.5-8.8-11.4-11.4-5.8-2.9-15.6-2.9-21.5.2-3.9 2-4.5 2.1-5.3.8-5.9-10.7-17.9-14.5-28.6-9.1zm214.3 91.9c6.1 3.5 12.5 10.4 15.3 16.3 3.2 7 2.8 14.4-1.3 22.8-8.7 17.8-44.4 39.9-83.7 51.8-21.7 6.6-52.5 11.9-92.3 16.2-21.5 2.2-64.9 1.5-87.1-1.5-35-4.7-62-12.3-83.8-23.4-17-8.6-27.1-20.9-28.3-34.4-.6-7.1.7-12.3 4.8-18.8l3.1-4.9 2.5 4.9c1.7 3.3 2.2 5 1.4 5.3-2.8.9-7.1 5.6-8.2 8.9-3.3 10 8 24 26.6 33 21.1 10.1 58 18.1 98.9 21.4 19.1 1.5 69.4.6 86.6-1.5 53.7-6.8 108.8-22.9 131.8-38.5 7.7-5.2 18.2-14.9 18.2-16.7 0-.8-.6-1.7-1.4-2-.7-.3-1.1-1.5-.9-2.7.2-1.2-.2-3-.9-4-1.2-1.6-1-2.6 1.4-7.4 1.5-3.1 2.8-7.2 2.8-9.2v-3.6l2.1 3.3c1.2 1.8 2.4 5.3 2.7 7.7.5 5.1 2.2 6.1 2.2 1.5 0-7.8-8.5-18.6-17.2-21.7-3.3-1.2-4.7-2.2-4.3-3.1.3-.7.5-1.8.5-2.3 0-1.4 3.5-.2 8.5 2.6zM231 204.7c0 1.4-3.4 4.3-5.2 4.3-2.6 0-2.2-1.3 1-3.2 2.9-1.9 4.2-2.2 4.2-1.1zm3.2 4.7c1.6 1.2 1.6 1.5-.7 3.6-2.5 2.3-2.5 2.3-4 .4-1.9-2.5-1.9-3.1.3-4.3 2.2-1.3 2.3-1.3 4.4.3zM643 243c20.5 2.7 19.8 2.5 21.7 6.5 2.1 4.3.9 9-2.9 11.8l-2.8 2.1-19.7-2.3c-10.9-1.2-19.9-2.4-20-2.5-.1-.1.2-2 .8-4.1.6-2.2.8-6.4.5-9.3l-.6-5.4 3.7.6c2.1.3 10.8 1.5 19.3 2.6zm-24.6-.4c1 2.5.7 10-.5 13.1-1.7 4.7-4.9 5.8-4.9 1.8 0-2.7-3.2-9.9-5.8-12.8-1.4-1.6-1.2-1.7 2.4-1.7 2.1 0 4.6-.5 5.4-1 2.1-1.3 2.7-1.2 3.4.6zm-10.2 7.1c1.4 2.7 2.8 6.2 3.1 8 1.1 5.5-1.7 4.9-9.4-1.9l-6.9-6.2 3-1.2c1.6-.7 3.5-2.2 4.2-3.3 1.5-2.5 2.7-1.6 6 4.6zm-6.2 8.6c5.2 4.8 5.5 5.4 4.2 7.5-.7 1-1.7 1-4.9-.2-2.3-.8-6.2-1.8-8.6-2.1l-4.5-.7 2.4-3.5c1.3-2 2.4-4.7 2.4-6 0-2.2.2-2.3 2-1 1.1.7 4.2 3.4 7 6zm-44.6 27.2c-1.8 15.9-3.3 29.2-3.3 29.5-.1.3-4.4.1-9.6-.4l-9.4-1 .5-4c.8-7 3.4-34.8 3.4-36.7 0-1.1 2.1-3.2 5.3-5.2 2.8-1.9 7.6-5.3 10.6-7.5 3-2.3 5.6-4 5.7-3.9 0 .1-1.4 13.2-3.2 29.2zm40.8-18.9c4 1.2 5.8 2.2 5.8 3.3 0 .9-4.4 21.8-9.7 46.4l-9.8 44.8-4.4-.6c-2.4-.4-6.7-1.4-9.6-2.3l-5.1-1.7 8.1-36c4.5-19.8 9.2-40.4 10.4-45.8l2.3-9.7h3.1c1.7 0 5.7.7 8.9 1.6zm-357.9 23.8c6.2 2.4 12.6 4.7 14.3 5 2.4.5 3.3 1.4 3.7 3.4.3 1.5 11.2 53.8 24.2 116.2 12.9 62.4 23.4 114 23.3 114.7-.3 1.3-13.1-5.3-18.6-9.5-1.9-1.5-5.7-15.8-28.3-108.2-31.2-127.7-30.8-126-30.2-126 .3 0 5.5 2 11.6 4.4zm265.3 2.3c-.3 3.2-.8 9.2-1.1 13.4l-.6 7.5-6.8 1.2c-3.7.6-8.9 2.1-11.6 3.2l-4.7 2 .6-2.2c.3-1.3.6-7 .6-12.8v-10.6l11.3-3.6c6.1-2 11.6-3.6 12-3.7.5 0 .6 2.5.3 5.6zm-59.3 127.5c-.3 65.1-.8 118.6-1.2 118.9-.7.7-16.2 3.1-16.7 2.6-.5-.4-7.6-231.6-7.2-234.1.3-1.8 1.6-2.2 11.3-3.7 6.1-.9 11.8-1.7 12.7-1.8 1.6-.1 1.7 7.4 1.1 118.1zM310.8 307.1c5.4.7 9.2 1.6 9.2 2.3.1.6 7 53.7 15.4 118.1 8.4 64.3 15.3 117.1 15.2 117.1-.2.2-19-3.7-19.3-4-.2-.2-8.4-51.3-18.2-113.7-9.9-62.4-18.3-115.4-18.7-117.8l-.7-4.4 3.9.6c2.1.3 8.1 1.1 13.2 1.8zm76.6 7.1c.7 6 14.6 224.8 14.6 228.9v2.7l-11.1.7c-6 .4-11.2.5-11.5.2-.5-.4-20.4-229.5-20.4-234.4 0-2.2.3-2.2 13.3-2.6 7.2-.1 13.5-.4 13.9-.5.4-.1.9 2.2 1.2 5zm170.1 4c12.1 2.1 13 2.5 13.3 4.7.2 1.3 0 2.7-.5 3.1-.4.5-4.2.2-8.3-.6-20.3-3.9-41.5-5.2-54.3-3.4-29.9 4.3-25.2 21 10.8 38.6 46.6 22.8 117.3 33.9 140.3 22 9.8-5.1 5.8-15.9-9.8-26.3-10.2-6.8-34.9-17.6-49.7-21.8-5.5-1.5-6.3-2.1-6.3-4.2 0-1.3.6-2.6 1.4-2.9 2.6-1 29 8.6 44.1 16.1 31.1 15.4 44.3 31.6 35 43.1-11.1 13.7-44.7 18.1-83.8 10.9-30.1-5.6-70.6-20.4-90.6-33.2-7.3-4.7-16.7-13.8-19.9-19.3-3.5-5.9-3.9-16.5-.7-20 3.1-3.4 10.5-6.7 18.6-8.4 11-2.3 43.1-1.4 60.4 1.6zM266.3 501.4c3.8 9.3 20.1 22.3 39.3 31.2 37.9 17.7 74.8 20.3 135.4 9.4 5.7-1.1 10.5-1.8 10.6-1.7.1.1 0 2.3-.3 4.9-.5 4.5-.8 4.8-4.3 5.8-12.8 3.4-33.5 6-54 6.7-61.6 2-110.5-15.8-126.7-46.4-3.1-5.7-4.6-14.3-2.5-14.3.4 0 1.5 2 2.5 4.4z"/><path d="M566.7 231.6c-1.9 4-2 4.4-.9 4.4 1.2 0 4.3-6.8 3.3-7.4-.4-.3-1.5 1.1-2.4 3z"/></svg>