<svg aria-hidden="true" style="width:0;height:0;position:absolute;overflow:hidden" xmlns="http://www.w3.org/2000/svg"><defs><symbol id="close-button" viewBox="0 0 32 32"><path fill="#567483" stroke="#FF0" style="stroke:var(--color1,#ff0)" stroke-linejoin="round" stroke-linecap="round" stroke-width="1.333" d="M23 23 9 9m14 0L9 23"/></symbol><symbol id="add-to-library" viewBox="0 0 112 32"><path fill="#fff" style="fill:var(--color2,#fff)" d="M22.934 13.284 20.895 19.2h-1.233l2.569-6.825h.787l-.084.909zm1.707 5.916-2.044-5.916-.089-.909h.792l2.578 6.825H24.64zm-.099-2.531v.933H20.83v-.933h3.712zm5.081 1.481V12h1.134v7.2H29.73l-.108-1.05zm-3.3-1.43v-.098c0-.384.045-.734.136-1.05.091-.319.222-.592.394-.82.172-.231.381-.408.628-.53a1.82 1.82 0 0 1 .834-.187c.306 0 .575.059.806.178s.428.289.591.511c.163.219.292.481.389.788.097.303.166.641.206 1.012v.314c-.041.362-.109.694-.206.994s-.227.559-.389.778a1.668 1.668 0 0 1-.595.506 1.75 1.75 0 0 1-.811.178c-.306 0-.583-.064-.83-.192-.244-.128-.452-.308-.623-.539s-.303-.503-.394-.816a3.697 3.697 0 0 1-.136-1.027zm1.13-.098v.098c0 .231.02.447.061.647.044.2.111.377.202.53.091.15.208.269.352.356.147.084.322.127.525.127.256 0 .467-.056.633-.169s.295-.264.389-.455c.097-.194.162-.409.197-.647v-.848a2.113 2.113 0 0 0-.117-.516 1.379 1.379 0 0 0-.23-.417.958.958 0 0 0-.361-.281 1.13 1.13 0 0 0-.502-.103c-.206 0-.381.044-.525.131s-.262.208-.356.361c-.091.153-.158.331-.202.534s-.066.42-.066.652zm7.58 1.528V12h1.134v7.2H35.14l-.108-1.05zm-3.3-1.43v-.098c0-.384.045-.734.136-1.05.091-.319.222-.592.394-.82.172-.231.381-.408.628-.53a1.82 1.82 0 0 1 .834-.187c.306 0 .575.059.806.178s.428.289.591.511c.163.219.292.481.389.788.097.303.166.641.206 1.012v.314c-.041.362-.109.694-.206.994s-.227.559-.389.778a1.668 1.668 0 0 1-.595.506 1.75 1.75 0 0 1-.811.178c-.306 0-.583-.064-.83-.192-.244-.128-.452-.308-.623-.539s-.303-.503-.394-.816a3.697 3.697 0 0 1-.136-1.027zm1.129-.098v.098c0 .231.02.447.061.647.044.2.111.377.202.53.091.15.208.269.352.356.147.084.322.127.525.127.256 0 .467-.056.633-.169s.295-.264.389-.455c.097-.194.162-.409.197-.647v-.848a2.113 2.113 0 0 0-.117-.516 1.379 1.379 0 0 0-.23-.417.958.958 0 0 0-.361-.281 1.13 1.13 0 0 0-.502-.103c-.206 0-.381.044-.525.131s-.262.208-.356.361c-.091.153-.158.331-.202.534s-.066.42-.066.652zm9.202-2.494v.825h-2.859v-.825h2.859zm-2.034-1.242h1.13v4.912c0 .156.022.277.066.361.047.081.111.136.192.164s.177.042.286.042a1.812 1.812 0 0 0 .398-.042l.005.862a2.948 2.948 0 0 1-.328.075 2.402 2.402 0 0 1-.422.033c-.259 0-.489-.045-.689-.136-.2-.094-.356-.245-.469-.455s-.169-.488-.169-.834v-4.983zm2.578 3.834v-.108c0-.366.053-.705.159-1.017.106-.316.259-.589.459-.82.203-.234.45-.416.741-.544.294-.131.625-.197.994-.197.372 0 .703.066.994.197.294.128.542.309.745.544.203.231.358.505.464.82.106.313.159.652.159 1.017v.108c0 .366-.053.705-.159 1.017s-.261.586-.464.82a2.16 2.16 0 0 1-.741.544 2.43 2.43 0 0 1-.989.192c-.372 0-.705-.064-.998-.192a2.157 2.157 0 0 1-.741-.544c-.203-.234-.358-.508-.464-.82s-.159-.652-.159-1.017zm1.13-.108v.108c0 .228.023.444.07.647s.12.381.22.534c.1.153.228.273.384.361s.342.131.558.131c.209 0 .391-.044.544-.131.156-.087.284-.208.384-.361s.173-.331.22-.534a2.7 2.7 0 0 0 .075-.647v-.108c0-.225-.025-.437-.075-.637a1.641 1.641 0 0 0-.225-.539 1.084 1.084 0 0 0-.384-.366c-.153-.091-.336-.136-.548-.136s-.397.045-.553.136c-.153.088-.28.209-.38.366s-.173.336-.22.539c-.047.2-.07.412-.07.637zm8.053-1.453V19.2h-1.13v-5.072h1.064l.066 1.031zm-.183 1.318-.384-.005c0-.35.044-.673.131-.97s.216-.555.384-.773c.169-.222.378-.392.628-.511.253-.122.545-.183.877-.183.231 0 .442.034.633.103.194.066.361.17.502.314.144.144.253.328.328.553.078.225.117.497.117.816v3.38h-1.13V15.92c0-.247-.038-.441-.112-.581a.623.623 0 0 0-.314-.3 1.143 1.143 0 0 0-.483-.094 1.13 1.13 0 0 0-.544.122c-.147.081-.267.192-.361.333s-.162.303-.206.488a2.536 2.536 0 0 0-.066.591zm3.145-.3-.53.117c0-.306.042-.595.127-.867.088-.275.214-.516.38-.722.169-.209.377-.373.623-.492s.53-.178.848-.178c.259 0 .491.036.694.108.206.069.381.178.525.328s.253.345.328.586c.075.238.113.525.113.862V19.2h-1.134v-3.286c0-.256-.038-.455-.112-.595a.587.587 0 0 0-.309-.291 1.25 1.25 0 0 0-.483-.084c-.175 0-.33.033-.464.098a.938.938 0 0 0-.333.267 1.179 1.179 0 0 0-.206.389 1.659 1.659 0 0 0-.066.478zm5.742 2.47 1.378-4.519h1.209l-2.034 5.845c-.047.125-.108.261-.183.408s-.173.286-.295.417a1.314 1.314 0 0 1-.445.323 1.508 1.508 0 0 1-.647.127c-.1 0-.197-.009-.291-.028a4.694 4.694 0 0 1-.258-.052l-.005-.862a4.12 4.12 0 0 0 .225.014c.188 0 .344-.023.469-.07a.653.653 0 0 0 .305-.216c.081-.1.15-.234.206-.403l.366-.984zm-.778-4.519 1.205 3.797.202 1.191-.783.202-1.842-5.189h1.219zM67.33 12v7.2h-1.134V12h1.134zm2.447 2.128V19.2h-1.134v-5.072h1.134zm-1.21-1.331c0-.172.056-.314.169-.427.116-.116.275-.173.478-.173.2 0 .358.058.473.173a.568.568 0 0 1 .173.427c0 .169-.058.309-.173.422s-.273.169-.473.169c-.203 0-.362-.056-.478-.169a.574.574 0 0 1-.169-.422zM71.019 12h1.13v6.117l-.108 1.083h-1.022V12zm4.439 4.617v.098c0 .375-.042.72-.127 1.036a2.39 2.39 0 0 1-.375.816 1.74 1.74 0 0 1-.619.539 1.836 1.836 0 0 1-.848.188c-.316 0-.591-.059-.825-.178s-.431-.287-.591-.506c-.156-.219-.283-.48-.38-.783s-.166-.638-.206-1.003v-.314c.041-.369.109-.703.206-1.003.097-.303.223-.564.38-.783.159-.222.355-.392.586-.511.234-.119.508-.178.82-.178.325 0 .611.062.858.187.25.125.458.303.623.534.166.228.289.5.37.816.084.316.127.664.127 1.045zm-1.13.099v-.098c0-.228-.019-.442-.056-.642a1.684 1.684 0 0 0-.187-.534.94.94 0 0 0-.347-.361.99.99 0 0 0-.539-.136c-.2 0-.372.034-.516.103s-.264.162-.361.281a1.41 1.41 0 0 0-.23.412 2.325 2.325 0 0 0-.108.506v.848c.028.234.087.45.178.647.094.194.225.35.394.469.169.116.386.173.652.173.209 0 .386-.042.53-.127s.258-.202.342-.352c.088-.153.15-.331.188-.534.041-.203.061-.422.061-.656zm3.22-1.622V19.2h-1.13v-5.072h1.078l.052.966zm1.552-.999-.009 1.05a3.05 3.05 0 0 0-.459-.037 1.43 1.43 0 0 0-.511.084.96.96 0 0 0-.595.6 1.664 1.664 0 0 0-.094.483l-.258.019c0-.319.031-.614.094-.886s.156-.511.281-.717c.128-.206.288-.367.478-.483.194-.116.417-.173.67-.173.069 0 .142.006.22.019a.969.969 0 0 1 .183.042zm3.398 4.088v-2.419c0-.181-.033-.338-.098-.469s-.166-.233-.3-.305a1.024 1.024 0 0 0-.497-.108c-.185 0-.344.031-.478.094s-.239.147-.314.253a.612.612 0 0 0-.113.361h-1.125c0-.2.048-.394.145-.581s.238-.355.422-.502c.184-.147.405-.263.661-.347s.544-.127.862-.127c.382 0 .719.064 1.013.192.297.128.53.322.698.581.172.256.258.578.258.966v2.255c0 .231.016.439.047.623.034.181.082.339.145.473v.075h-1.158a2.005 2.005 0 0 1-.126-.464 3.81 3.81 0 0 1-.042-.553zm.164-2.067.01.698h-.811c-.21 0-.394.02-.553.061-.159.037-.292.094-.398.169a.736.736 0 0 0-.319.633c0 .134.031.258.094.37a.67.67 0 0 0 .272.258.964.964 0 0 0 .441.094 1.243 1.243 0 0 0 1.018-.493.762.762 0 0 0 .159-.398l.366.502c-.038.128-.102.266-.192.412s-.21.288-.357.422a1.757 1.757 0 0 1-1.214.45c-.331 0-.626-.066-.886-.197a1.575 1.575 0 0 1-.609-.539 1.396 1.396 0 0 1-.22-.773c0-.269.05-.506.15-.713a1.4 1.4 0 0 1 .45-.525c.2-.141.444-.247.731-.319.288-.075.616-.113.985-.113h.886zm3.287-1.022V19.2h-1.13v-5.072h1.078l.052.966zm1.551-.999-.01 1.05a3.05 3.05 0 0 0-.459-.037 1.43 1.43 0 0 0-.511.084.968.968 0 0 0-.596.6 1.631 1.631 0 0 0-.094.483l-.258.019c0-.319.031-.614.094-.886s.156-.511.282-.717c.128-.206.287-.367.478-.483.194-.116.418-.173.67-.173.069 0 .142.006.22.019a.95.95 0 0 1 .183.042zm2.264 4.552 1.378-4.519h1.209l-2.034 5.845c-.046.125-.107.261-.182.408s-.174.286-.295.417a1.308 1.308 0 0 1-.446.323 1.506 1.506 0 0 1-.646.127c-.1 0-.197-.009-.291-.028a5.105 5.105 0 0 1-.258-.052l-.005-.862a4.12 4.12 0 0 0 .225.014c.188 0 .344-.023.469-.07a.648.648 0 0 0 .305-.216c.082-.1.15-.234.206-.403l.366-.984zm-.778-4.519 1.205 3.797.202 1.191-.782.202-1.842-5.189h1.218z"/><path fill="none" stroke="#000" style="stroke:var(--color3,#000)" stroke-width=".8" d="M16 .4h80c8.616 0 15.6 6.984 15.6 15.6S104.616 31.6 96 31.6H16C7.384 31.6.4 24.616.4 16S7.384.4 16 .4z"/></symbol><symbol id="remove-from-library" viewBox="0 0 141 32"><path fill="#fff" style="fill:var(--color2,#fff)" d="M19.911 12.375h2.414c.519 0 .961.078 1.327.234s.645.388.839.694c.197.303.295.678.295 1.125 0 .341-.062.641-.188.9s-.302.478-.53.656a2.56 2.56 0 0 1-.816.408l-.356.173h-2.17l-.009-.933h1.627c.281 0 .516-.05.703-.15s.328-.236.422-.408c.097-.175.145-.372.145-.591 0-.238-.047-.444-.141-.619a.908.908 0 0 0-.422-.408c-.191-.097-.433-.145-.727-.145h-1.237v5.888H19.91v-6.825zm3.895 6.825-1.603-3.066 1.233-.005 1.627 3.009v.061h-1.256zm4.275.094c-.375 0-.714-.061-1.017-.183a2.249 2.249 0 0 1-.769-.52c-.209-.222-.37-.483-.483-.783s-.169-.623-.169-.97v-.188c0-.397.058-.756.173-1.078s.277-.597.483-.825c.206-.231.45-.408.731-.53s.586-.183.914-.183c.363 0 .68.061.952.183s.497.294.675.516c.181.219.316.48.403.783.091.303.136.638.136 1.003v.483h-3.919v-.811h2.803v-.089a1.582 1.582 0 0 0-.122-.572c-.072-.178-.183-.322-.333-.431s-.35-.164-.6-.164a.99.99 0 0 0-.863.464c-.097.15-.172.331-.225.544-.05.209-.075.445-.075.708v.188c0 .222.03.428.089.619.062.188.153.352.272.492s.263.252.431.333c.169.078.361.117.577.117.272 0 .514-.055.727-.164s.397-.264.553-.464l.595.577a2.14 2.14 0 0 1-1.069.811c-.25.091-.541.136-.872.136zm4.041-4.135V19.2h-1.13v-5.072h1.064l.066 1.031zm-.183 1.318-.384-.005c0-.35.044-.673.131-.97s.216-.555.384-.773c.169-.222.378-.392.628-.511.253-.122.545-.183.877-.183.231 0 .442.034.633.103.194.066.361.17.502.314.144.144.253.328.328.553.078.225.117.497.117.816v3.38h-1.13V15.92c0-.247-.037-.441-.112-.581a.623.623 0 0 0-.314-.3 1.143 1.143 0 0 0-.483-.094c-.212 0-.394.041-.544.122-.147.081-.267.192-.361.333s-.163.303-.206.488a2.536 2.536 0 0 0-.066.591zm3.145-.3-.53.117c0-.306.042-.595.127-.867.087-.275.214-.516.38-.722.169-.209.377-.373.623-.492s.53-.178.848-.178c.259 0 .491.036.694.108.206.069.381.178.525.328s.253.345.328.586c.075.238.112.525.112.862V19.2h-1.134v-3.286c0-.256-.038-.455-.113-.595a.587.587 0 0 0-.309-.291 1.25 1.25 0 0 0-.483-.084c-.175 0-.33.033-.464.098a.938.938 0 0 0-.333.267 1.179 1.179 0 0 0-.206.389 1.659 1.659 0 0 0-.066.478zm4.055.543v-.108c0-.366.053-.705.159-1.017.106-.316.259-.589.459-.82.203-.234.45-.416.741-.544.294-.131.625-.197.994-.197.372 0 .703.066.994.197.294.128.542.309.745.544.203.231.358.505.464.82.106.313.159.652.159 1.017v.108c0 .366-.053.705-.159 1.017s-.261.586-.464.82a2.16 2.16 0 0 1-.741.544 2.43 2.43 0 0 1-.989.192c-.372 0-.705-.064-.998-.192a2.148 2.148 0 0 1-.741-.544c-.203-.234-.358-.508-.464-.82s-.159-.652-.159-1.017zm1.13-.108v.108c0 .228.023.444.07.647s.12.381.22.534c.1.153.228.273.384.361s.342.131.558.131c.209 0 .391-.044.544-.131.156-.087.284-.208.384-.361s.173-.331.22-.534a2.7 2.7 0 0 0 .075-.647v-.108c0-.225-.025-.437-.075-.637a1.641 1.641 0 0 0-.225-.539 1.084 1.084 0 0 0-.384-.366c-.153-.091-.336-.136-.548-.136s-.397.045-.553.136c-.153.088-.28.209-.38.366s-.173.336-.22.539c-.047.2-.07.412-.07.637zm6.108 1.693 1.242-4.177h1.172L47.029 19.2h-.731l.08-.895zm-.952-4.177 1.266 4.195.061.877h-.731l-1.772-5.072h1.177zm6.234 5.166c-.375 0-.714-.061-1.017-.183a2.249 2.249 0 0 1-.769-.52c-.209-.222-.37-.483-.483-.783s-.169-.623-.169-.97v-.188c0-.397.058-.756.173-1.078s.277-.597.483-.825c.206-.231.45-.408.731-.53s.586-.183.914-.183c.362 0 .68.061.952.183s.497.294.675.516c.181.219.316.48.403.783.091.303.136.638.136 1.003v.483h-3.919v-.811h2.803v-.089a1.582 1.582 0 0 0-.122-.572c-.072-.178-.183-.322-.333-.431s-.35-.164-.6-.164a.99.99 0 0 0-.863.464c-.097.15-.172.331-.225.544-.05.209-.075.445-.075.708v.188c0 .222.03.428.089.619.063.188.153.352.272.492s.262.252.431.333c.169.078.361.117.577.117.272 0 .514-.055.727-.164s.397-.264.553-.464l.595.577a2.14 2.14 0 0 1-1.069.811c-.25.091-.541.136-.872.136zm6.83-.094h-1.13v-5.559c0-.378.07-.695.211-.952.144-.259.348-.455.614-.586a2.07 2.07 0 0 1 .942-.202c.112 0 .223.008.333.023.109.013.216.033.319.061l-.028.872a1.216 1.216 0 0 0-.206-.033 2.828 2.828 0 0 0-.234-.009.952.952 0 0 0-.445.098.643.643 0 0 0-.281.277.986.986 0 0 0-.094.45v5.559zm1.045-5.072v.825h-2.953v-.825h2.953zm1.955.966V19.2h-1.13v-5.072h1.078l.052.966zm1.552-.999-.009 1.05a3.05 3.05 0 0 0-.459-.037 1.43 1.43 0 0 0-.511.084.96.96 0 0 0-.595.6 1.664 1.664 0 0 0-.094.483l-.258.019c0-.319.031-.614.094-.886s.156-.511.281-.717c.128-.206.288-.367.478-.483.194-.116.417-.173.67-.173.069 0 .142.006.22.019a.969.969 0 0 1 .183.042zm.37 2.625v-.108c0-.366.053-.705.159-1.017.106-.316.259-.589.459-.82.203-.234.45-.416.741-.544.294-.131.625-.197.994-.197.372 0 .703.066.994.197.294.128.542.309.745.544.203.231.358.505.464.82.106.313.159.652.159 1.017v.108c0 .366-.053.705-.159 1.017s-.261.586-.464.82a2.16 2.16 0 0 1-.741.544 2.43 2.43 0 0 1-.989.192c-.372 0-.705-.064-.998-.192a2.148 2.148 0 0 1-.741-.544c-.203-.234-.358-.508-.464-.82s-.159-.652-.159-1.017zm1.13-.108v.108c0 .228.023.444.07.647s.12.381.22.534c.1.153.228.273.384.361s.342.131.558.131c.209 0 .391-.044.544-.131.156-.087.284-.208.384-.361s.173-.331.22-.534a2.7 2.7 0 0 0 .075-.647v-.108c0-.225-.025-.437-.075-.637a1.641 1.641 0 0 0-.225-.539 1.084 1.084 0 0 0-.384-.366c-.153-.091-.336-.136-.548-.136s-.397.045-.553.136c-.153.088-.28.209-.38.366s-.173.336-.22.539c-.047.2-.07.412-.07.637zm5.662-1.453V19.2h-1.13v-5.072h1.064l.066 1.031zm-.183 1.318-.384-.005c0-.35.044-.673.131-.97s.216-.555.384-.773c.169-.222.378-.392.628-.511.253-.122.545-.183.877-.183.231 0 .442.034.633.103.194.066.361.17.502.314.144.144.253.328.328.553.078.225.117.497.117.816v3.38h-1.13V15.92c0-.247-.038-.441-.112-.581a.623.623 0 0 0-.314-.3 1.143 1.143 0 0 0-.483-.094c-.212 0-.394.041-.544.122-.147.081-.267.192-.361.333s-.162.303-.206.488a2.536 2.536 0 0 0-.066.591zm3.146-.3-.53.117c0-.306.042-.595.127-.867.088-.275.214-.516.38-.722.169-.209.377-.373.623-.492s.53-.178.848-.178c.259 0 .491.036.694.108.206.069.381.178.525.328s.253.345.328.586c.075.238.112.525.112.862V19.2h-1.134v-3.286c0-.256-.037-.455-.112-.595a.587.587 0 0 0-.309-.291 1.25 1.25 0 0 0-.483-.084c-.175 0-.33.033-.464.098a.938.938 0 0 0-.333.267 1.179 1.179 0 0 0-.206.389 1.659 1.659 0 0 0-.066.478zm7.79-1.018V19.2h-1.129v-5.072h1.064l.066 1.031zm-.182 1.318-.385-.005c0-.35.044-.673.131-.97s.216-.555.385-.773c.169-.222.378-.392.628-.511.253-.122.546-.183.877-.183.231 0 .442.034.633.103.194.066.361.17.502.314.143.144.253.328.328.553.078.225.117.497.117.816v3.38h-1.13V15.92c0-.247-.038-.441-.112-.581a.623.623 0 0 0-.314-.3 1.141 1.141 0 0 0-.482-.094 1.13 1.13 0 0 0-.544.122c-.147.081-.267.192-.361.333s-.162.303-.206.488a2.536 2.536 0 0 0-.066.591zm3.144-.3-.53.117c0-.306.042-.595.127-.867a2.21 2.21 0 0 1 .379-.722c.169-.209.377-.373.623-.492s.53-.178.849-.178c.259 0 .49.036.694.108.206.069.382.178.525.328s.254.345.329.586c.074.238.112.525.112.862V19.2h-1.134v-3.286c0-.256-.038-.455-.112-.595a.585.585 0 0 0-.31-.291 1.25 1.25 0 0 0-.483-.084c-.174 0-.33.033-.464.098a.938.938 0 0 0-.333.267c-.09.112-.159.242-.206.389a1.694 1.694 0 0 0-.066.478zm5.743 2.47 1.378-4.519h1.21l-2.034 5.845c-.047.125-.108.261-.183.408s-.174.286-.295.417a1.308 1.308 0 0 1-.446.323 1.506 1.506 0 0 1-.646.127c-.1 0-.197-.009-.291-.028a5.105 5.105 0 0 1-.258-.052l-.005-.862a4.12 4.12 0 0 0 .226.014c.187 0 .343-.023.468-.07a.648.648 0 0 0 .305-.216c.082-.1.15-.234.206-.403l.366-.984zm-.778-4.519 1.204 3.797.202 1.191-.782.202-1.842-5.189h1.219zM96.495 12v7.2h-1.134V12h1.134zm2.447 2.128V19.2h-1.134v-5.072h1.134zm-1.209-1.331c0-.172.056-.314.169-.427.115-.116.275-.173.478-.173.2 0 .358.058.473.173a.57.57 0 0 1 .174.427c0 .169-.058.309-.174.422s-.273.169-.473.169c-.203 0-.363-.056-.478-.169a.57.57 0 0 1-.169-.422zm2.451-.797h1.13v6.117l-.108 1.083h-1.022V12zm4.439 4.617v.098c0 .375-.042.72-.126 1.036a2.39 2.39 0 0 1-.375.816 1.737 1.737 0 0 1-.618.539 1.834 1.834 0 0 1-.849.188c-.315 0-.59-.059-.825-.178s-.431-.287-.59-.506c-.156-.219-.283-.48-.38-.783s-.166-.638-.206-1.003v-.314c.041-.369.11-.703.206-1.003.097-.303.224-.564.38-.783.159-.222.354-.392.586-.511a1.79 1.79 0 0 1 .821-.178c.325 0 .61.062.858.187.25.125.458.303.623.534.166.228.29.5.37.816.085.316.126.664.126 1.045zm-1.129.099v-.098a3.44 3.44 0 0 0-.056-.642 1.685 1.685 0 0 0-.188-.534.946.946 0 0 0-.346-.361.99.99 0 0 0-.539-.136c-.2 0-.372.034-.515.103s-.265.162-.362.281a1.41 1.41 0 0 0-.23.412 2.268 2.268 0 0 0-.107.506v.848c.028.234.087.45.178.647.094.194.225.35.394.469.169.116.386.173.652.173.21 0 .386-.042.53-.127s.258-.202.342-.352c.087-.153.15-.331.187-.534.041-.203.061-.422.061-.656zm3.22-1.622V19.2h-1.13v-5.072h1.078l.052.966zm1.552-.999-.01 1.05a3.05 3.05 0 0 0-.459-.037 1.43 1.43 0 0 0-.511.084.968.968 0 0 0-.596.6 1.631 1.631 0 0 0-.094.483l-.258.019c0-.319.031-.614.094-.886s.156-.511.282-.717c.128-.206.287-.367.478-.483.194-.116.418-.173.67-.173.069 0 .142.006.221.019a.936.936 0 0 1 .182.042zm3.398 4.088v-2.419c0-.181-.033-.338-.098-.469s-.166-.233-.3-.305a1.024 1.024 0 0 0-.497-.108c-.185 0-.344.031-.478.094s-.239.147-.314.253a.612.612 0 0 0-.113.361h-1.125c0-.2.048-.394.145-.581s.238-.355.422-.502c.184-.147.405-.263.661-.347s.544-.127.862-.127c.382 0 .719.064 1.013.192.297.128.53.322.698.581.172.256.258.578.258.966v2.255c0 .231.016.439.047.623.034.181.082.339.145.473v.075h-1.158a2.005 2.005 0 0 1-.126-.464 3.81 3.81 0 0 1-.042-.553zm.164-2.067.01.698h-.811c-.21 0-.394.02-.553.061-.159.037-.292.094-.398.169a.736.736 0 0 0-.319.633c0 .134.031.258.094.37a.67.67 0 0 0 .272.258.964.964 0 0 0 .441.094 1.243 1.243 0 0 0 1.018-.493.762.762 0 0 0 .159-.398l.366.502c-.038.128-.102.266-.192.412s-.21.288-.357.422a1.757 1.757 0 0 1-1.214.45c-.331 0-.626-.066-.886-.197a1.575 1.575 0 0 1-.609-.539 1.397 1.397 0 0 1-.221-.773c0-.269.05-.506.15-.713a1.4 1.4 0 0 1 .45-.525c.2-.141.444-.247.731-.319.288-.075.616-.113.985-.113h.886zm3.286-1.022V19.2h-1.13v-5.072h1.078l.052.966zm1.552-.999-.01 1.05a3.05 3.05 0 0 0-.459-.037 1.43 1.43 0 0 0-.511.084.968.968 0 0 0-.596.6 1.631 1.631 0 0 0-.094.483l-.258.019c0-.319.031-.614.094-.886s.156-.511.282-.717c.128-.206.287-.367.478-.483.194-.116.418-.173.67-.173.069 0 .142.006.221.019a.936.936 0 0 1 .182.042zm2.264 4.552 1.378-4.519h1.209l-2.034 5.845c-.047.125-.108.261-.183.408s-.174.286-.295.417a1.308 1.308 0 0 1-.446.323 1.506 1.506 0 0 1-.646.127c-.1 0-.197-.009-.291-.028a5.105 5.105 0 0 1-.258-.052l-.005-.862a4.12 4.12 0 0 0 .225.014c.188 0 .344-.023.469-.07a.648.648 0 0 0 .305-.216c.082-.1.15-.234.206-.403l.366-.984zm-.779-4.519 1.205 3.797.202 1.191-.782.202-1.842-5.189h1.218z"/><path fill="none" stroke="#000" style="stroke:var(--color3,#000)" stroke-width=".8" d="M16 .4h108.8c8.616 0 15.6 6.984 15.6 15.6s-6.984 15.6-15.6 15.6H16C7.384 31.6.4 24.616.4 16S7.384.4 16 .4z"/></symbol></defs></svg>