<?xml version="1.0" standalone="no"?>
<!DOCTYPE svg PUBLIC "-//W3C//DTD SVG 20010904//EN"
 "http://www.w3.org/TR/2001/REC-SVG-20010904/DTD/svg10.dtd">
<svg version="1.0" xmlns="http://www.w3.org/2000/svg"
 width="700.000000pt" height="700.000000pt" viewBox="0 0 700.000000 700.000000"
 preserveAspectRatio="xMidYMid meet">
<metadata>
Created by potrace 1.14, written by Peter Selinger 2001-2017
</metadata>
<g transform="translate(0.000000,700.000000) scale(0.100000,-0.100000)"
fill="#000000" stroke="none">
<path d="M5919 6107 c-19 -12 -41 -37 -49 -54 l-15 -31 -23 19 c-48 39 -150
51 -202 24 -51 -26 -65 -82 -35 -139 9 -16 14 -30 13 -30 -2 -1 -16 -7 -31
-14 -61 -26 -94 -182 -54 -258 27 -53 90 -62 138 -20 18 15 26 16 46 7 47 -21
115 24 233 154 8 9 37 31 65 49 57 38 105 116 105 173 0 73 -65 143 -133 143
-13 0 -39 -10 -58 -23z"/>
<path d="M3442 5924 c-30 -15 -63 -41 -75 -59 -22 -33 -23 -33 -36 -14 -17 29
-88 59 -139 59 -123 0 -229 -116 -269 -293 -9 -40 -17 -73 -18 -75 -1 -1 -16
3 -34 9 -37 13 -86 -2 -102 -32 -9 -18 -11 -18 -47 1 -76 41 -192 12 -239 -59
-28 -42 -29 -82 -3 -140 11 -24 20 -45 20 -47 0 -2 -19 -4 -43 -4 -95 0 -161
-88 -163 -218 -2 -71 -2 -72 -38 -97 -22 -15 -51 -25 -72 -25 -19 0 -48 -7
-63 -15 -28 -14 -61 -68 -61 -100 0 -9 -14 -34 -30 -55 -54 -68 -75 -127 -75
-210 0 -90 30 -163 95 -234 41 -45 44 -51 101 -278 32 -128 59 -239 59 -245 0
-7 -199 -162 -442 -344 l-441 -332 -96 15 c-69 10 -95 18 -93 27 1 7 188 393
414 858 226 464 409 845 407 847 -2 2 -103 56 -224 121 l-220 117 -149 2 -149
1 -499 -1115 c-273 -613 -498 -1119 -498 -1125 0 -5 51 -28 112 -50 77 -27
138 -57 193 -95 44 -30 142 -86 218 -125 l139 -70 497 -684 497 -684 100 -29
c54 -15 104 -26 111 -24 6 3 183 124 393 269 l381 265 93 -49 c112 -59 199
-90 361 -129 183 -44 286 -54 540 -54 237 1 388 15 563 53 l83 18 -7 -53 c-9
-75 17 -123 124 -226 97 -93 171 -142 282 -187 201 -80 509 -141 714 -141 148
0 298 50 385 127 l42 38 279 900 c156 503 286 904 294 910 8 5 27 17 43 26 24
13 35 36 80 175 57 174 58 197 14 267 -28 45 -112 124 -189 176 -98 66 -312
165 -473 219 l-146 48 62 283 c56 253 65 285 90 311 16 17 44 33 63 36 19 4
125 -4 237 -16 l203 -23 31 22 c56 41 61 136 7 180 -9 8 -104 25 -232 43
l-215 29 -45 -21 c-37 -18 -49 -20 -76 -11 -30 11 -33 9 -60 -24 -16 -19 -44
-38 -61 -43 -24 -6 -33 -15 -35 -33 -6 -50 -12 -67 -38 -93 -24 -23 -35 -61
-89 -302 -34 -151 -65 -277 -67 -280 -5 -4 -148 23 -155 30 -2 1 12 141 31
310 l35 308 46 49 c101 108 129 247 73 355 -33 63 -111 134 -184 169 -44 21
-54 30 -54 51 0 53 -70 91 -120 64 -15 -8 -19 -5 -24 14 -3 12 -18 35 -32 49
-33 34 -92 37 -134 7 -31 -22 -34 -20 -45 28 -15 70 -107 123 -180 103 l-35
-9 0 41 c0 57 -36 108 -97 138 -39 19 -64 24 -128 24 -44 -1 -89 -4 -100 -8
-16 -5 -26 2 -51 36 -18 24 -54 55 -85 72 -49 27 -63 30 -149 31 -53 0 -105 6
-117 12 -12 7 -37 12 -56 12 -29 0 -37 5 -47 29 -16 39 -65 88 -114 114 -58
29 -156 29 -215 -2 -39 -20 -45 -21 -53 -8 -59 107 -179 145 -286 91z m2143
-919 c61 -35 125 -104 153 -163 32 -70 28 -144 -13 -228 -87 -178 -444 -399
-837 -518 -217 -66 -525 -119 -923 -162 -215 -22 -649 -15 -871 15 -350 47
-620 123 -838 234 -170 86 -271 209 -283 344 -6 71 7 123 48 188 l31 49 25
-49 c17 -33 22 -50 14 -53 -28 -9 -71 -56 -82 -89 -33 -100 80 -240 266 -330
211 -101 580 -181 989 -214 191 -15 694 -6 866 15 537 68 1088 229 1318 385
77 52 182 149 182 167 0 8 -6 17 -14 20 -7 3 -11 15 -9 27 2 12 -2 30 -9 40
-12 16 -10 26 14 74 15 31 28 72 28 92 l0 36 21 -33 c12 -18 24 -53 27 -77 5
-51 22 -61 22 -15 0 78 -85 186 -172 217 -33 12 -47 22 -43 31 3 7 5 18 5 23
0 14 35 2 85 -26z m-3275 -52 c0 -14 -34 -43 -52 -43 -26 0 -22 13 10 32 29
19 42 22 42 11z m32 -47 c16 -12 16 -15 -7 -36 -25 -23 -25 -23 -40 -4 -19 25
-19 31 3 43 22 13 23 13 44 -3z m4088 -336 c205 -27 198 -25 217 -65 21 -43 9
-90 -29 -118 l-28 -21 -197 23 c-109 12 -199 24 -200 25 -1 1 2 20 8 41 6 22
8 64 5 93 l-6 54 37 -6 c21 -3 108 -15 193 -26z m-246 4 c10 -25 7 -100 -5
-131 -17 -47 -49 -58 -49 -18 0 27 -32 99 -58 128 -14 16 -12 17 24 17 21 0
46 5 54 10 21 13 27 12 34 -6z m-102 -71 c14 -27 28 -62 31 -80 11 -55 -17
-49 -94 19 l-69 62 30 12 c16 7 35 22 42 33 15 25 27 16 60 -46z m-62 -86 c52
-48 55 -54 42 -75 -7 -10 -17 -10 -49 2 -23 8 -62 18 -86 21 l-45 7 24 35 c13
20 24 47 24 60 0 22 2 23 20 10 11 -7 42 -34 70 -60z m-446 -272 c-18 -159
-33 -292 -33 -295 -1 -3 -44 -1 -96 4 l-94 10 5 40 c8 70 34 348 34 367 0 11
21 32 53 52 28 19 76 53 106 75 30 23 56 40 57 39 0 -1 -14 -132 -32 -292z
m408 189 c40 -12 58 -22 58 -33 0 -9 -44 -218 -97 -464 l-98 -448 -44 6 c-24
4 -67 14 -96 23 l-51 17 81 360 c45 198 92 404 104 458 l23 97 31 0 c17 0 57
-7 89 -16z m-3579 -238 c62 -24 126 -47 143 -50 24 -5 33 -14 37 -34 3 -15
112 -538 242 -1162 129 -624 234 -1140 233 -1147 -3 -13 -131 53 -186 95 -19
15 -57 158 -283 1082 -312 1277 -308 1260 -302 1260 3 0 55 -20 116 -44z
m2653 -23 c-3 -32 -8 -92 -11 -134 l-6 -75 -68 -12 c-37 -6 -89 -21 -116 -32
l-47 -20 6 22 c3 13 6 70 6 128 l0 106 113 36 c61 20 116 36 120 37 5 0 6 -25
3 -56z m-593 -1275 c-3 -651 -8 -1186 -12 -1189 -7 -7 -162 -31 -167 -26 -5 4
-76 2316 -72 2341 3 18 16 22 113 37 61 9 118 17 127 18 16 1 17 -74 11 -1181z
m-1355 1131 c54 -7 92 -16 92 -23 1 -6 70 -537 154 -1181 84 -643 153 -1171
152 -1171 -2 -2 -190 37 -193 40 -2 2 -84 513 -182 1137 -99 624 -183 1154
-187 1178 l-7 44 39 -6 c21 -3 81 -11 132 -18z m766 -71 c7 -60 146 -2248 146
-2289 l0 -27 -111 -7 c-60 -4 -112 -5 -115 -2 -5 4 -204 2295 -204 2344 0 22
3 22 133 26 72 1 135 4 139 5 4 1 9 -22 12 -50z m1701 -40 c121 -21 130 -25
133 -47 2 -13 0 -27 -5 -31 -4 -5 -42 -2 -83 6 -203 39 -415 52 -543 34 -299
-43 -252 -210 108 -386 466 -228 1173 -339 1403 -220 98 51 58 159 -98 263
-102 68 -349 176 -497 218 -55 15 -63 21 -63 42 0 13 6 26 14 29 26 10 290
-86 441 -161 311 -154 443 -316 350 -431 -111 -137 -447 -181 -838 -109 -301
56 -706 204 -906 332 -73 47 -167 138 -199 193 -35 59 -39 165 -7 200 31 34
105 67 186 84 110 23 431 14 604 -16z m-2912 -1832 c38 -93 201 -223 393 -312
379 -177 748 -203 1354 -94 57 11 105 18 106 17 1 -1 0 -23 -3 -49 -5 -45 -8
-48 -43 -58 -128 -34 -335 -60 -540 -67 -616 -20 -1105 158 -1267 464 -31 57
-46 143 -25 143 4 0 15 -20 25 -44z"/>
<path d="M5667 4684 c-19 -40 -20 -44 -9 -44 12 0 43 68 33 74 -4 3 -15 -11
-24 -30z"/>
</g>
</svg>
