<svg width="18" height="18" viewBox="0 0 18 18" fill="none" xmlns="http://www.w3.org/2000/svg">
<path d="M13.852 16.8746C13.7336 16.875 13.6181 16.8381 13.5219 16.7691L9.00048 13.4911L4.47903 16.7691C4.38243 16.8392 4.26606 16.8767 4.14673 16.8762C4.0274 16.8758 3.91129 16.8374 3.81521 16.7667C3.71912 16.6959 3.64803 16.5964 3.61221 16.4826C3.57639 16.3688 3.5777 16.2465 3.61594 16.1335L5.37938 10.9103L0.809069 7.77612C0.710073 7.70831 0.635356 7.61062 0.595836 7.49732C0.556316 7.38402 0.554063 7.26105 0.589407 7.14638C0.624751 7.0317 0.695839 6.93134 0.792285 6.85995C0.888732 6.78856 1.00548 6.74988 1.12548 6.74956H6.76384L8.4654 1.51304C8.50205 1.39998 8.57358 1.30144 8.6697 1.23156C8.76583 1.16167 8.88163 1.12402 9.00048 1.12402C9.11932 1.12402 9.23512 1.16167 9.33125 1.23156C9.42738 1.30144 9.4989 1.39998 9.53555 1.51304L11.2371 6.75132H16.8755C16.9956 6.75126 17.1126 6.78967 17.2094 6.86093C17.3061 6.93218 17.3775 7.03254 17.413 7.1473C17.4486 7.26206 17.4465 7.38519 17.407 7.49866C17.3675 7.61213 17.2928 7.70998 17.1936 7.77788L12.6216 10.9103L14.384 16.1321C14.4125 16.2166 14.4205 16.3067 14.4074 16.395C14.3942 16.4832 14.3603 16.5671 14.3083 16.6396C14.2563 16.7122 14.1879 16.7713 14.1085 16.8122C14.0292 16.853 13.9413 16.8744 13.852 16.8746Z" fill="url(#paint0_linear_148_6980)"/>
<defs>
<linearGradient id="paint0_linear_148_6980" x1="2.62549" y1="2.24957" x2="13.8755" y2="17.2496" gradientUnits="userSpaceOnUse">
<stop stop-color="#F84119"/>
<stop offset="1" stop-color="#F89F19" stop-opacity="0.68"/>
</linearGradient>
</defs>
</svg>
