<svg aria-hidden="true" style="position: absolute; width: 0; height: 0; overflow: hidden;" version="1.1" xmlns="http://www.w3.org/2000/svg" xmlns:xlink="http://www.w3.org/1999/xlink">
<defs>
<symbol id="close-button" viewBox="0 0 32 32">
<path fill="#567483" stroke="#FFFF00" style="stroke: var(--color1, #FFFF00)" stroke-linejoin="round" stroke-linecap="round" stroke-miterlimit="4" stroke-width="1.3333" d="M23 23l-14-14M23 9l-14 14"></path>
</symbol>
<symbol id="add-to-library" viewBox="0 0 112 32">
<path fill="#fff" style="fill: var(--color2, #fff)" d="M22.934 13.284l-2.039 5.916h-1.233l2.569-6.825h0.787l-0.084 0.909zM24.641 19.2l-2.044-5.916-0.089-0.909h0.792l2.578 6.825h-1.238zM24.542 16.669v0.933h-3.712v-0.933h3.712zM29.623 18.15v-6.15h1.134v7.2h-1.027l-0.108-1.050zM26.323 16.72v-0.098c0-0.384 0.045-0.734 0.136-1.050 0.091-0.319 0.222-0.592 0.394-0.82 0.172-0.231 0.381-0.408 0.628-0.53 0.247-0.125 0.525-0.187 0.834-0.187 0.306 0 0.575 0.059 0.806 0.178s0.428 0.289 0.591 0.511c0.163 0.219 0.292 0.481 0.389 0.788 0.097 0.303 0.166 0.641 0.206 1.012v0.314c-0.041 0.362-0.109 0.694-0.206 0.994s-0.227 0.559-0.389 0.778c-0.162 0.219-0.361 0.388-0.595 0.506-0.231 0.119-0.502 0.178-0.811 0.178-0.306 0-0.583-0.064-0.83-0.192-0.244-0.128-0.452-0.308-0.623-0.539s-0.303-0.503-0.394-0.816c-0.091-0.316-0.136-0.658-0.136-1.027zM27.453 16.622v0.098c0 0.231 0.020 0.447 0.061 0.647 0.044 0.2 0.111 0.377 0.202 0.53 0.091 0.15 0.208 0.269 0.352 0.356 0.147 0.084 0.322 0.127 0.525 0.127 0.256 0 0.467-0.056 0.633-0.169s0.295-0.264 0.389-0.455c0.097-0.194 0.162-0.409 0.197-0.647v-0.848c-0.019-0.184-0.058-0.356-0.117-0.516-0.056-0.159-0.133-0.298-0.23-0.417-0.097-0.122-0.217-0.216-0.361-0.281-0.141-0.069-0.308-0.103-0.502-0.103-0.206 0-0.381 0.044-0.525 0.131s-0.262 0.208-0.356 0.361c-0.091 0.153-0.158 0.331-0.202 0.534s-0.066 0.42-0.066 0.652zM35.033 18.15v-6.15h1.134v7.2h-1.027l-0.108-1.050zM31.733 16.72v-0.098c0-0.384 0.045-0.734 0.136-1.050 0.091-0.319 0.222-0.592 0.394-0.82 0.172-0.231 0.381-0.408 0.628-0.53 0.247-0.125 0.525-0.187 0.834-0.187 0.306 0 0.575 0.059 0.806 0.178s0.428 0.289 0.591 0.511c0.163 0.219 0.292 0.481 0.389 0.788 0.097 0.303 0.166 0.641 0.206 1.012v0.314c-0.041 0.362-0.109 0.694-0.206 0.994s-0.227 0.559-0.389 0.778c-0.162 0.219-0.361 0.388-0.595 0.506-0.231 0.119-0.502 0.178-0.811 0.178-0.306 0-0.583-0.064-0.83-0.192-0.244-0.128-0.452-0.308-0.623-0.539s-0.303-0.503-0.394-0.816c-0.091-0.316-0.136-0.658-0.136-1.027zM32.862 16.622v0.098c0 0.231 0.020 0.447 0.061 0.647 0.044 0.2 0.111 0.377 0.202 0.53 0.091 0.15 0.208 0.269 0.352 0.356 0.147 0.084 0.322 0.127 0.525 0.127 0.256 0 0.467-0.056 0.633-0.169s0.295-0.264 0.389-0.455c0.097-0.194 0.162-0.409 0.197-0.647v-0.848c-0.019-0.184-0.058-0.356-0.117-0.516-0.056-0.159-0.133-0.298-0.23-0.417-0.097-0.122-0.217-0.216-0.361-0.281-0.141-0.069-0.308-0.103-0.502-0.103-0.206 0-0.381 0.044-0.525 0.131s-0.262 0.208-0.356 0.361c-0.091 0.153-0.158 0.331-0.202 0.534s-0.066 0.42-0.066 0.652zM42.064 14.128v0.825h-2.859v-0.825h2.859zM40.030 12.886h1.13v4.912c0 0.156 0.022 0.277 0.066 0.361 0.047 0.081 0.111 0.136 0.192 0.164s0.177 0.042 0.286 0.042c0.078 0 0.153-0.005 0.225-0.014s0.13-0.019 0.173-0.028l0.005 0.862c-0.094 0.028-0.203 0.053-0.328 0.075-0.122 0.022-0.263 0.033-0.422 0.033-0.259 0-0.489-0.045-0.689-0.136-0.2-0.094-0.356-0.245-0.469-0.455s-0.169-0.488-0.169-0.834v-4.983zM42.608 16.72v-0.108c0-0.366 0.053-0.705 0.159-1.017 0.106-0.316 0.259-0.589 0.459-0.82 0.203-0.234 0.45-0.416 0.741-0.544 0.294-0.131 0.625-0.197 0.994-0.197 0.372 0 0.703 0.066 0.994 0.197 0.294 0.128 0.542 0.309 0.745 0.544 0.203 0.231 0.358 0.505 0.464 0.82 0.106 0.313 0.159 0.652 0.159 1.017v0.108c0 0.366-0.053 0.705-0.159 1.017s-0.261 0.586-0.464 0.82c-0.203 0.231-0.45 0.412-0.741 0.544-0.291 0.128-0.62 0.192-0.989 0.192-0.372 0-0.705-0.064-0.998-0.192-0.291-0.131-0.537-0.313-0.741-0.544-0.203-0.234-0.358-0.508-0.464-0.82s-0.159-0.652-0.159-1.017zM43.738 16.612v0.108c0 0.228 0.023 0.444 0.070 0.647s0.12 0.381 0.22 0.534c0.1 0.153 0.228 0.273 0.384 0.361s0.342 0.131 0.558 0.131c0.209 0 0.391-0.044 0.544-0.131 0.156-0.087 0.284-0.208 0.384-0.361s0.173-0.331 0.22-0.534c0.050-0.203 0.075-0.419 0.075-0.647v-0.108c0-0.225-0.025-0.437-0.075-0.637-0.047-0.203-0.122-0.383-0.225-0.539-0.1-0.156-0.228-0.278-0.384-0.366-0.153-0.091-0.336-0.136-0.548-0.136s-0.397 0.045-0.553 0.136c-0.153 0.088-0.28 0.209-0.38 0.366s-0.173 0.336-0.22 0.539c-0.047 0.2-0.070 0.412-0.070 0.637zM51.791 15.159v4.041h-1.13v-5.072h1.064l0.066 1.031zM51.608 16.477l-0.384-0.005c0-0.35 0.044-0.673 0.131-0.97s0.216-0.555 0.384-0.773c0.169-0.222 0.378-0.392 0.628-0.511 0.253-0.122 0.545-0.183 0.877-0.183 0.231 0 0.442 0.034 0.633 0.103 0.194 0.066 0.361 0.17 0.502 0.314 0.144 0.144 0.253 0.328 0.328 0.553 0.078 0.225 0.117 0.497 0.117 0.816v3.38h-1.13v-3.281c0-0.247-0.038-0.441-0.112-0.581-0.072-0.141-0.177-0.241-0.314-0.3-0.134-0.062-0.295-0.094-0.483-0.094-0.213 0-0.394 0.041-0.544 0.122-0.147 0.081-0.267 0.192-0.361 0.333s-0.162 0.303-0.206 0.488c-0.044 0.184-0.066 0.381-0.066 0.591zM54.753 16.177l-0.53 0.117c0-0.306 0.042-0.595 0.127-0.867 0.088-0.275 0.214-0.516 0.38-0.722 0.169-0.209 0.377-0.373 0.623-0.492s0.53-0.178 0.848-0.178c0.259 0 0.491 0.036 0.694 0.108 0.206 0.069 0.381 0.178 0.525 0.328s0.253 0.345 0.328 0.586c0.075 0.238 0.113 0.525 0.113 0.862v3.281h-1.134v-3.286c0-0.256-0.038-0.455-0.112-0.595-0.072-0.141-0.175-0.237-0.309-0.291-0.134-0.056-0.295-0.084-0.483-0.084-0.175 0-0.33 0.033-0.464 0.098-0.131 0.063-0.242 0.152-0.333 0.267-0.091 0.112-0.159 0.242-0.206 0.389-0.044 0.147-0.066 0.306-0.066 0.478zM60.495 18.647l1.378-4.519h1.209l-2.034 5.845c-0.047 0.125-0.108 0.261-0.183 0.408s-0.173 0.286-0.295 0.417c-0.119 0.134-0.267 0.242-0.445 0.323-0.178 0.084-0.394 0.127-0.647 0.127-0.1 0-0.197-0.009-0.291-0.028-0.091-0.016-0.177-0.033-0.258-0.052l-0.005-0.862c0.031 0.003 0.069 0.006 0.113 0.009 0.047 0.003 0.084 0.005 0.112 0.005 0.188 0 0.344-0.023 0.469-0.070 0.125-0.044 0.227-0.116 0.305-0.216 0.081-0.1 0.15-0.234 0.206-0.403l0.366-0.984zM59.717 14.128l1.205 3.797 0.202 1.191-0.783 0.202-1.842-5.189h1.219zM67.33 12v7.2h-1.134v-7.2h1.134zM69.777 14.128v5.072h-1.134v-5.072h1.134zM68.567 12.797c0-0.172 0.056-0.314 0.169-0.427 0.116-0.116 0.275-0.173 0.478-0.173 0.2 0 0.358 0.058 0.473 0.173 0.116 0.112 0.173 0.255 0.173 0.427 0 0.169-0.058 0.309-0.173 0.422s-0.273 0.169-0.473 0.169c-0.203 0-0.362-0.056-0.478-0.169-0.112-0.112-0.169-0.253-0.169-0.422zM71.019 12h1.13v6.117l-0.108 1.083h-1.022v-7.2zM75.458 16.617v0.098c0 0.375-0.042 0.72-0.127 1.036-0.081 0.312-0.206 0.584-0.375 0.816-0.166 0.231-0.372 0.411-0.619 0.539-0.244 0.125-0.527 0.188-0.848 0.188-0.316 0-0.591-0.059-0.825-0.178s-0.431-0.287-0.591-0.506c-0.156-0.219-0.283-0.48-0.38-0.783s-0.166-0.638-0.206-1.003v-0.314c0.041-0.369 0.109-0.703 0.206-1.003 0.097-0.303 0.223-0.564 0.38-0.783 0.159-0.222 0.355-0.392 0.586-0.511 0.234-0.119 0.508-0.178 0.82-0.178 0.325 0 0.611 0.062 0.858 0.187 0.25 0.125 0.458 0.303 0.623 0.534 0.166 0.228 0.289 0.5 0.37 0.816 0.084 0.316 0.127 0.664 0.127 1.045zM74.328 16.716v-0.098c0-0.228-0.019-0.442-0.056-0.642-0.037-0.203-0.1-0.381-0.187-0.534-0.084-0.153-0.2-0.273-0.347-0.361-0.144-0.091-0.323-0.136-0.539-0.136-0.2 0-0.372 0.034-0.516 0.103s-0.264 0.162-0.361 0.281c-0.097 0.119-0.173 0.256-0.23 0.412-0.053 0.156-0.089 0.325-0.108 0.506v0.848c0.028 0.234 0.087 0.45 0.178 0.647 0.094 0.194 0.225 0.35 0.394 0.469 0.169 0.116 0.386 0.173 0.652 0.173 0.209 0 0.386-0.042 0.53-0.127s0.258-0.202 0.342-0.352c0.088-0.153 0.15-0.331 0.188-0.534 0.041-0.203 0.061-0.422 0.061-0.656zM77.548 15.094v4.106h-1.13v-5.072h1.078l0.052 0.966zM79.1 14.095l-0.009 1.050c-0.069-0.012-0.144-0.022-0.225-0.028-0.078-0.006-0.156-0.009-0.234-0.009-0.194 0-0.364 0.028-0.511 0.084-0.147 0.053-0.27 0.131-0.37 0.234-0.097 0.1-0.172 0.222-0.225 0.366s-0.084 0.305-0.094 0.483l-0.258 0.019c0-0.319 0.031-0.614 0.094-0.886s0.156-0.511 0.281-0.717c0.128-0.206 0.288-0.367 0.478-0.483 0.194-0.116 0.417-0.173 0.67-0.173 0.069 0 0.142 0.006 0.22 0.019 0.081 0.012 0.142 0.027 0.183 0.042zM82.498 18.183v-2.419c0-0.181-0.033-0.338-0.098-0.469s-0.166-0.233-0.3-0.305c-0.131-0.072-0.297-0.108-0.497-0.108-0.185 0-0.344 0.031-0.478 0.094s-0.239 0.147-0.314 0.253c-0.075 0.106-0.113 0.227-0.113 0.361h-1.125c0-0.2 0.048-0.394 0.145-0.581s0.238-0.355 0.422-0.502c0.184-0.147 0.405-0.263 0.661-0.347s0.544-0.127 0.862-0.127c0.382 0 0.719 0.064 1.013 0.192 0.297 0.128 0.53 0.322 0.698 0.581 0.172 0.256 0.258 0.578 0.258 0.966v2.255c0 0.231 0.016 0.439 0.047 0.623 0.034 0.181 0.082 0.339 0.145 0.473v0.075h-1.158c-0.053-0.122-0.095-0.277-0.126-0.464-0.028-0.191-0.042-0.375-0.042-0.553zM82.662 16.116l0.010 0.698h-0.811c-0.21 0-0.394 0.020-0.553 0.061-0.159 0.037-0.292 0.094-0.398 0.169s-0.186 0.166-0.239 0.272c-0.054 0.106-0.080 0.227-0.080 0.361s0.031 0.258 0.094 0.37c0.063 0.109 0.154 0.195 0.272 0.258 0.122 0.062 0.269 0.094 0.441 0.094 0.231 0 0.433-0.047 0.605-0.141 0.175-0.097 0.313-0.214 0.413-0.352 0.1-0.141 0.153-0.273 0.159-0.398l0.366 0.502c-0.038 0.128-0.102 0.266-0.192 0.412s-0.21 0.288-0.357 0.422c-0.143 0.131-0.317 0.239-0.52 0.323-0.2 0.084-0.431 0.127-0.694 0.127-0.331 0-0.626-0.066-0.886-0.197-0.259-0.134-0.462-0.314-0.609-0.539-0.147-0.228-0.22-0.486-0.22-0.773 0-0.269 0.050-0.506 0.15-0.713 0.103-0.209 0.253-0.384 0.45-0.525 0.2-0.141 0.444-0.247 0.731-0.319 0.288-0.075 0.616-0.113 0.985-0.113h0.886zM85.949 15.094v4.106h-1.13v-5.072h1.078l0.052 0.966zM87.5 14.095l-0.010 1.050c-0.069-0.012-0.143-0.022-0.225-0.028-0.078-0.006-0.156-0.009-0.234-0.009-0.194 0-0.364 0.028-0.511 0.084-0.146 0.053-0.27 0.131-0.37 0.234-0.098 0.1-0.172 0.222-0.226 0.366s-0.084 0.305-0.094 0.483l-0.258 0.019c0-0.319 0.031-0.614 0.094-0.886s0.156-0.511 0.282-0.717c0.128-0.206 0.287-0.367 0.478-0.483 0.194-0.116 0.418-0.173 0.67-0.173 0.069 0 0.142 0.006 0.22 0.019 0.082 0.012 0.142 0.027 0.183 0.042zM89.764 18.647l1.378-4.519h1.209l-2.034 5.845c-0.046 0.125-0.107 0.261-0.182 0.408s-0.174 0.286-0.295 0.417c-0.119 0.134-0.267 0.242-0.446 0.323-0.178 0.084-0.394 0.127-0.646 0.127-0.1 0-0.197-0.009-0.291-0.028-0.090-0.016-0.176-0.033-0.258-0.052l-0.005-0.862c0.031 0.003 0.069 0.006 0.113 0.009 0.046 0.003 0.084 0.005 0.112 0.005 0.188 0 0.344-0.023 0.469-0.070 0.126-0.044 0.227-0.116 0.305-0.216 0.082-0.1 0.15-0.234 0.206-0.403l0.366-0.984zM88.986 14.128l1.205 3.797 0.202 1.191-0.782 0.202-1.842-5.189h1.218z"></path>
<path fill="none" stroke="#000" style="stroke: var(--color3, #000)" stroke-linejoin="miter" stroke-linecap="butt" stroke-miterlimit="4" stroke-width="0.8" d="M16 0.4h80c8.616 0 15.6 6.984 15.6 15.6s-6.984 15.6-15.6 15.6h-80c-8.616 0-15.6-6.984-15.6-15.6s6.984-15.6 15.6-15.6z"></path>
</symbol>
<symbol id="remove-from-library" viewBox="0 0 141 32">
<path fill="#fff" style="fill: var(--color2, #fff)" d="M19.911 12.375h2.414c0.519 0 0.961 0.078 1.327 0.234s0.645 0.388 0.839 0.694c0.197 0.303 0.295 0.678 0.295 1.125 0 0.341-0.062 0.641-0.188 0.9s-0.302 0.478-0.53 0.656c-0.228 0.175-0.5 0.311-0.816 0.408l-0.356 0.173h-2.17l-0.009-0.933h1.627c0.281 0 0.516-0.050 0.703-0.15s0.328-0.236 0.422-0.408c0.097-0.175 0.145-0.372 0.145-0.591 0-0.238-0.047-0.444-0.141-0.619-0.091-0.178-0.231-0.314-0.422-0.408-0.191-0.097-0.433-0.145-0.727-0.145h-1.237v5.888h-1.177v-6.825zM23.806 19.2l-1.603-3.066 1.233-0.005 1.627 3.009v0.061h-1.256zM28.081 19.294c-0.375 0-0.714-0.061-1.017-0.183-0.3-0.125-0.556-0.298-0.769-0.52-0.209-0.222-0.37-0.483-0.483-0.783s-0.169-0.623-0.169-0.97v-0.188c0-0.397 0.058-0.756 0.173-1.078s0.277-0.597 0.483-0.825c0.206-0.231 0.45-0.408 0.731-0.53s0.586-0.183 0.914-0.183c0.363 0 0.68 0.061 0.952 0.183s0.497 0.294 0.675 0.516c0.181 0.219 0.316 0.48 0.403 0.783 0.091 0.303 0.136 0.638 0.136 1.003v0.483h-3.919v-0.811h2.803v-0.089c-0.006-0.203-0.047-0.394-0.122-0.572-0.072-0.178-0.183-0.322-0.333-0.431s-0.35-0.164-0.6-0.164c-0.188 0-0.355 0.041-0.502 0.122-0.144 0.078-0.264 0.192-0.361 0.342s-0.172 0.331-0.225 0.544c-0.050 0.209-0.075 0.445-0.075 0.708v0.188c0 0.222 0.030 0.428 0.089 0.619 0.062 0.188 0.153 0.352 0.272 0.492s0.263 0.252 0.431 0.333c0.169 0.078 0.361 0.117 0.577 0.117 0.272 0 0.514-0.055 0.727-0.164s0.397-0.264 0.553-0.464l0.595 0.577c-0.109 0.159-0.252 0.312-0.427 0.459-0.175 0.144-0.389 0.261-0.642 0.352-0.25 0.091-0.541 0.136-0.872 0.136zM32.122 15.159v4.041h-1.13v-5.072h1.064l0.066 1.031zM31.939 16.477l-0.384-0.005c0-0.35 0.044-0.673 0.131-0.97s0.216-0.555 0.384-0.773c0.169-0.222 0.378-0.392 0.628-0.511 0.253-0.122 0.545-0.183 0.877-0.183 0.231 0 0.442 0.034 0.633 0.103 0.194 0.066 0.361 0.17 0.502 0.314 0.144 0.144 0.253 0.328 0.328 0.553 0.078 0.225 0.117 0.497 0.117 0.816v3.38h-1.13v-3.281c0-0.247-0.037-0.441-0.112-0.581-0.072-0.141-0.177-0.241-0.314-0.3-0.134-0.062-0.295-0.094-0.483-0.094-0.212 0-0.394 0.041-0.544 0.122-0.147 0.081-0.267 0.192-0.361 0.333s-0.163 0.303-0.206 0.488c-0.044 0.184-0.066 0.381-0.066 0.591zM35.084 16.177l-0.53 0.117c0-0.306 0.042-0.595 0.127-0.867 0.087-0.275 0.214-0.516 0.38-0.722 0.169-0.209 0.377-0.373 0.623-0.492s0.53-0.178 0.848-0.178c0.259 0 0.491 0.036 0.694 0.108 0.206 0.069 0.381 0.178 0.525 0.328s0.253 0.345 0.328 0.586c0.075 0.238 0.112 0.525 0.112 0.862v3.281h-1.134v-3.286c0-0.256-0.038-0.455-0.113-0.595-0.072-0.141-0.175-0.237-0.309-0.291-0.134-0.056-0.295-0.084-0.483-0.084-0.175 0-0.33 0.033-0.464 0.098-0.131 0.063-0.242 0.152-0.333 0.267-0.091 0.112-0.159 0.242-0.206 0.389-0.044 0.147-0.066 0.306-0.066 0.478zM39.139 16.72v-0.108c0-0.366 0.053-0.705 0.159-1.017 0.106-0.316 0.259-0.589 0.459-0.82 0.203-0.234 0.45-0.416 0.741-0.544 0.294-0.131 0.625-0.197 0.994-0.197 0.372 0 0.703 0.066 0.994 0.197 0.294 0.128 0.542 0.309 0.745 0.544 0.203 0.231 0.358 0.505 0.464 0.82 0.106 0.313 0.159 0.652 0.159 1.017v0.108c0 0.366-0.053 0.705-0.159 1.017s-0.261 0.586-0.464 0.82c-0.203 0.231-0.45 0.412-0.741 0.544-0.291 0.128-0.62 0.192-0.989 0.192-0.372 0-0.705-0.064-0.998-0.192-0.291-0.131-0.538-0.313-0.741-0.544-0.203-0.234-0.358-0.508-0.464-0.82s-0.159-0.652-0.159-1.017zM40.269 16.612v0.108c0 0.228 0.023 0.444 0.070 0.647s0.12 0.381 0.22 0.534c0.1 0.153 0.228 0.273 0.384 0.361s0.342 0.131 0.558 0.131c0.209 0 0.391-0.044 0.544-0.131 0.156-0.087 0.284-0.208 0.384-0.361s0.173-0.331 0.22-0.534c0.050-0.203 0.075-0.419 0.075-0.647v-0.108c0-0.225-0.025-0.437-0.075-0.637-0.047-0.203-0.122-0.383-0.225-0.539-0.1-0.156-0.228-0.278-0.384-0.366-0.153-0.091-0.336-0.136-0.548-0.136s-0.397 0.045-0.553 0.136c-0.153 0.088-0.28 0.209-0.38 0.366s-0.173 0.336-0.22 0.539c-0.047 0.2-0.070 0.412-0.070 0.637zM46.377 18.305l1.242-4.177h1.172l-1.762 5.072h-0.731l0.080-0.895zM45.425 14.128l1.266 4.195 0.061 0.877h-0.731l-1.772-5.072h1.177zM51.659 19.294c-0.375 0-0.714-0.061-1.017-0.183-0.3-0.125-0.556-0.298-0.769-0.52-0.209-0.222-0.37-0.483-0.483-0.783s-0.169-0.623-0.169-0.97v-0.188c0-0.397 0.058-0.756 0.173-1.078s0.277-0.597 0.483-0.825c0.206-0.231 0.45-0.408 0.731-0.53s0.586-0.183 0.914-0.183c0.362 0 0.68 0.061 0.952 0.183s0.497 0.294 0.675 0.516c0.181 0.219 0.316 0.48 0.403 0.783 0.091 0.303 0.136 0.638 0.136 1.003v0.483h-3.919v-0.811h2.803v-0.089c-0.006-0.203-0.047-0.394-0.122-0.572-0.072-0.178-0.183-0.322-0.333-0.431s-0.35-0.164-0.6-0.164c-0.187 0-0.355 0.041-0.502 0.122-0.144 0.078-0.264 0.192-0.361 0.342s-0.172 0.331-0.225 0.544c-0.050 0.209-0.075 0.445-0.075 0.708v0.188c0 0.222 0.030 0.428 0.089 0.619 0.063 0.188 0.153 0.352 0.272 0.492s0.262 0.252 0.431 0.333c0.169 0.078 0.361 0.117 0.577 0.117 0.272 0 0.514-0.055 0.727-0.164s0.397-0.264 0.553-0.464l0.595 0.577c-0.109 0.159-0.252 0.312-0.427 0.459-0.175 0.144-0.389 0.261-0.642 0.352-0.25 0.091-0.541 0.136-0.872 0.136zM58.489 19.2h-1.13v-5.559c0-0.378 0.070-0.695 0.211-0.952 0.144-0.259 0.348-0.455 0.614-0.586 0.266-0.134 0.58-0.202 0.942-0.202 0.112 0 0.223 0.008 0.333 0.023 0.109 0.013 0.216 0.033 0.319 0.061l-0.028 0.872c-0.062-0.016-0.131-0.027-0.206-0.033-0.072-0.006-0.15-0.009-0.234-0.009-0.172 0-0.32 0.033-0.445 0.098-0.122 0.062-0.216 0.155-0.281 0.277-0.062 0.122-0.094 0.272-0.094 0.45v5.559zM59.534 14.128v0.825h-2.953v-0.825h2.953zM61.489 15.094v4.106h-1.13v-5.072h1.078l0.052 0.966zM63.041 14.095l-0.009 1.050c-0.069-0.012-0.144-0.022-0.225-0.028-0.078-0.006-0.156-0.009-0.234-0.009-0.194 0-0.364 0.028-0.511 0.084-0.147 0.053-0.27 0.131-0.37 0.234-0.097 0.1-0.172 0.222-0.225 0.366s-0.084 0.305-0.094 0.483l-0.258 0.019c0-0.319 0.031-0.614 0.094-0.886s0.156-0.511 0.281-0.717c0.128-0.206 0.288-0.367 0.478-0.483 0.194-0.116 0.417-0.173 0.67-0.173 0.069 0 0.142 0.006 0.22 0.019 0.081 0.012 0.142 0.027 0.183 0.042zM63.411 16.72v-0.108c0-0.366 0.053-0.705 0.159-1.017 0.106-0.316 0.259-0.589 0.459-0.82 0.203-0.234 0.45-0.416 0.741-0.544 0.294-0.131 0.625-0.197 0.994-0.197 0.372 0 0.703 0.066 0.994 0.197 0.294 0.128 0.542 0.309 0.745 0.544 0.203 0.231 0.358 0.505 0.464 0.82 0.106 0.313 0.159 0.652 0.159 1.017v0.108c0 0.366-0.053 0.705-0.159 1.017s-0.261 0.586-0.464 0.82c-0.203 0.231-0.45 0.412-0.741 0.544-0.291 0.128-0.62 0.192-0.989 0.192-0.372 0-0.705-0.064-0.998-0.192-0.291-0.131-0.538-0.313-0.741-0.544-0.203-0.234-0.358-0.508-0.464-0.82s-0.159-0.652-0.159-1.017zM64.541 16.612v0.108c0 0.228 0.023 0.444 0.070 0.647s0.12 0.381 0.22 0.534c0.1 0.153 0.228 0.273 0.384 0.361s0.342 0.131 0.558 0.131c0.209 0 0.391-0.044 0.544-0.131 0.156-0.087 0.284-0.208 0.384-0.361s0.173-0.331 0.22-0.534c0.050-0.203 0.075-0.419 0.075-0.647v-0.108c0-0.225-0.025-0.437-0.075-0.637-0.047-0.203-0.122-0.383-0.225-0.539-0.1-0.156-0.228-0.278-0.384-0.366-0.153-0.091-0.336-0.136-0.548-0.136s-0.397 0.045-0.553 0.136c-0.153 0.088-0.28 0.209-0.38 0.366s-0.173 0.336-0.22 0.539c-0.047 0.2-0.070 0.412-0.070 0.637zM70.203 15.159v4.041h-1.13v-5.072h1.064l0.066 1.031zM70.020 16.477l-0.384-0.005c0-0.35 0.044-0.673 0.131-0.97s0.216-0.555 0.384-0.773c0.169-0.222 0.378-0.392 0.628-0.511 0.253-0.122 0.545-0.183 0.877-0.183 0.231 0 0.442 0.034 0.633 0.103 0.194 0.066 0.361 0.17 0.502 0.314 0.144 0.144 0.253 0.328 0.328 0.553 0.078 0.225 0.117 0.497 0.117 0.816v3.38h-1.13v-3.281c0-0.247-0.038-0.441-0.112-0.581-0.072-0.141-0.177-0.241-0.314-0.3-0.134-0.062-0.295-0.094-0.483-0.094-0.212 0-0.394 0.041-0.544 0.122-0.147 0.081-0.267 0.192-0.361 0.333s-0.162 0.303-0.206 0.488c-0.044 0.184-0.066 0.381-0.066 0.591zM73.166 16.177l-0.53 0.117c0-0.306 0.042-0.595 0.127-0.867 0.088-0.275 0.214-0.516 0.38-0.722 0.169-0.209 0.377-0.373 0.623-0.492s0.53-0.178 0.848-0.178c0.259 0 0.491 0.036 0.694 0.108 0.206 0.069 0.381 0.178 0.525 0.328s0.253 0.345 0.328 0.586c0.075 0.238 0.112 0.525 0.112 0.862v3.281h-1.134v-3.286c0-0.256-0.037-0.455-0.112-0.595-0.072-0.141-0.175-0.237-0.309-0.291-0.134-0.056-0.295-0.084-0.483-0.084-0.175 0-0.33 0.033-0.464 0.098-0.131 0.063-0.242 0.152-0.333 0.267-0.091 0.112-0.159 0.242-0.206 0.389-0.044 0.147-0.066 0.306-0.066 0.478zM80.956 15.159v4.041h-1.129v-5.072h1.064l0.066 1.031zM80.774 16.477l-0.385-0.005c0-0.35 0.044-0.673 0.131-0.97s0.216-0.555 0.385-0.773c0.169-0.222 0.378-0.392 0.628-0.511 0.253-0.122 0.546-0.183 0.877-0.183 0.231 0 0.442 0.034 0.633 0.103 0.194 0.066 0.361 0.17 0.502 0.314 0.143 0.144 0.253 0.328 0.328 0.553 0.078 0.225 0.117 0.497 0.117 0.816v3.38h-1.13v-3.281c0-0.247-0.038-0.441-0.112-0.581-0.072-0.141-0.177-0.241-0.314-0.3-0.134-0.062-0.295-0.094-0.482-0.094-0.213 0-0.394 0.041-0.544 0.122-0.147 0.081-0.267 0.192-0.361 0.333s-0.162 0.303-0.206 0.488c-0.044 0.184-0.066 0.381-0.066 0.591zM83.918 16.177l-0.53 0.117c0-0.306 0.042-0.595 0.127-0.867 0.087-0.275 0.214-0.516 0.379-0.722 0.169-0.209 0.377-0.373 0.623-0.492s0.53-0.178 0.849-0.178c0.259 0 0.49 0.036 0.694 0.108 0.206 0.069 0.382 0.178 0.525 0.328s0.254 0.345 0.329 0.586c0.074 0.238 0.112 0.525 0.112 0.862v3.281h-1.134v-3.286c0-0.256-0.038-0.455-0.112-0.595-0.072-0.141-0.175-0.237-0.31-0.291-0.134-0.056-0.295-0.084-0.483-0.084-0.174 0-0.33 0.033-0.464 0.098-0.131 0.063-0.242 0.152-0.333 0.267-0.090 0.112-0.159 0.242-0.206 0.389-0.043 0.147-0.066 0.306-0.066 0.478zM89.661 18.647l1.378-4.519h1.21l-2.034 5.845c-0.047 0.125-0.108 0.261-0.183 0.408s-0.174 0.286-0.295 0.417c-0.119 0.134-0.267 0.242-0.446 0.323-0.178 0.084-0.394 0.127-0.646 0.127-0.1 0-0.197-0.009-0.291-0.028-0.090-0.016-0.176-0.033-0.258-0.052l-0.005-0.862c0.031 0.003 0.069 0.006 0.113 0.009 0.046 0.003 0.084 0.005 0.113 0.005 0.187 0 0.343-0.023 0.468-0.070 0.126-0.044 0.227-0.116 0.305-0.216 0.082-0.1 0.15-0.234 0.206-0.403l0.366-0.984zM88.883 14.128l1.204 3.797 0.202 1.191-0.782 0.202-1.842-5.189h1.219zM96.495 12v7.2h-1.134v-7.2h1.134zM98.942 14.128v5.072h-1.134v-5.072h1.134zM97.733 12.797c0-0.172 0.056-0.314 0.169-0.427 0.115-0.116 0.275-0.173 0.478-0.173 0.2 0 0.358 0.058 0.473 0.173 0.116 0.112 0.174 0.255 0.174 0.427 0 0.169-0.058 0.309-0.174 0.422s-0.273 0.169-0.473 0.169c-0.203 0-0.363-0.056-0.478-0.169-0.113-0.112-0.169-0.253-0.169-0.422zM100.184 12h1.13v6.117l-0.108 1.083h-1.022v-7.2zM104.623 16.617v0.098c0 0.375-0.042 0.72-0.126 1.036-0.081 0.312-0.206 0.584-0.375 0.816-0.166 0.231-0.371 0.411-0.618 0.539-0.244 0.125-0.526 0.188-0.849 0.188-0.315 0-0.59-0.059-0.825-0.178s-0.431-0.287-0.59-0.506c-0.156-0.219-0.283-0.48-0.38-0.783s-0.166-0.638-0.206-1.003v-0.314c0.041-0.369 0.11-0.703 0.206-1.003 0.097-0.303 0.224-0.564 0.38-0.783 0.159-0.222 0.354-0.392 0.586-0.511 0.234-0.119 0.508-0.178 0.821-0.178 0.325 0 0.61 0.062 0.858 0.187 0.25 0.125 0.458 0.303 0.623 0.534 0.166 0.228 0.29 0.5 0.37 0.816 0.085 0.316 0.126 0.664 0.126 1.045zM103.494 16.716v-0.098c0-0.228-0.018-0.442-0.056-0.642-0.038-0.203-0.1-0.381-0.188-0.534-0.084-0.153-0.2-0.273-0.346-0.361-0.144-0.091-0.323-0.136-0.539-0.136-0.2 0-0.372 0.034-0.515 0.103s-0.265 0.162-0.362 0.281c-0.097 0.119-0.173 0.256-0.23 0.412-0.053 0.156-0.089 0.325-0.107 0.506v0.848c0.028 0.234 0.087 0.45 0.178 0.647 0.094 0.194 0.225 0.35 0.394 0.469 0.169 0.116 0.386 0.173 0.652 0.173 0.21 0 0.386-0.042 0.53-0.127s0.258-0.202 0.342-0.352c0.087-0.153 0.15-0.331 0.187-0.534 0.041-0.203 0.061-0.422 0.061-0.656zM106.714 15.094v4.106h-1.13v-5.072h1.078l0.052 0.966zM108.266 14.095l-0.010 1.050c-0.069-0.012-0.143-0.022-0.225-0.028-0.078-0.006-0.156-0.009-0.234-0.009-0.194 0-0.364 0.028-0.511 0.084-0.146 0.053-0.27 0.131-0.37 0.234-0.098 0.1-0.172 0.222-0.226 0.366s-0.084 0.305-0.094 0.483l-0.258 0.019c0-0.319 0.031-0.614 0.094-0.886s0.156-0.511 0.282-0.717c0.128-0.206 0.287-0.367 0.478-0.483 0.194-0.116 0.418-0.173 0.67-0.173 0.069 0 0.142 0.006 0.221 0.019 0.081 0.012 0.142 0.027 0.182 0.042zM111.664 18.183v-2.419c0-0.181-0.033-0.338-0.098-0.469s-0.166-0.233-0.3-0.305c-0.131-0.072-0.297-0.108-0.497-0.108-0.185 0-0.344 0.031-0.478 0.094s-0.239 0.147-0.314 0.253c-0.075 0.106-0.113 0.227-0.113 0.361h-1.125c0-0.2 0.048-0.394 0.145-0.581s0.238-0.355 0.422-0.502c0.184-0.147 0.405-0.263 0.661-0.347s0.544-0.127 0.862-0.127c0.382 0 0.719 0.064 1.013 0.192 0.297 0.128 0.53 0.322 0.698 0.581 0.172 0.256 0.258 0.578 0.258 0.966v2.255c0 0.231 0.016 0.439 0.047 0.623 0.034 0.181 0.082 0.339 0.145 0.473v0.075h-1.158c-0.053-0.122-0.095-0.277-0.126-0.464-0.028-0.191-0.042-0.375-0.042-0.553zM111.828 16.116l0.010 0.698h-0.811c-0.21 0-0.394 0.020-0.553 0.061-0.159 0.037-0.292 0.094-0.398 0.169s-0.186 0.166-0.239 0.272-0.080 0.227-0.080 0.361c0 0.134 0.031 0.258 0.094 0.37 0.063 0.109 0.154 0.195 0.272 0.258 0.122 0.062 0.269 0.094 0.441 0.094 0.231 0 0.433-0.047 0.605-0.141 0.175-0.097 0.313-0.214 0.413-0.352 0.1-0.141 0.153-0.273 0.159-0.398l0.366 0.502c-0.038 0.128-0.102 0.266-0.192 0.412s-0.21 0.288-0.357 0.422c-0.143 0.131-0.317 0.239-0.52 0.323-0.2 0.084-0.431 0.127-0.694 0.127-0.331 0-0.626-0.066-0.886-0.197-0.259-0.134-0.462-0.314-0.609-0.539-0.147-0.228-0.221-0.486-0.221-0.773 0-0.269 0.050-0.506 0.15-0.713 0.103-0.209 0.253-0.384 0.45-0.525 0.2-0.141 0.444-0.247 0.731-0.319 0.288-0.075 0.616-0.113 0.985-0.113h0.886zM115.114 15.094v4.106h-1.13v-5.072h1.078l0.052 0.966zM116.666 14.095l-0.010 1.050c-0.069-0.012-0.143-0.022-0.225-0.028-0.078-0.006-0.156-0.009-0.234-0.009-0.194 0-0.364 0.028-0.511 0.084-0.146 0.053-0.27 0.131-0.37 0.234-0.098 0.1-0.172 0.222-0.226 0.366s-0.084 0.305-0.094 0.483l-0.258 0.019c0-0.319 0.031-0.614 0.094-0.886s0.156-0.511 0.282-0.717c0.128-0.206 0.287-0.367 0.478-0.483 0.194-0.116 0.418-0.173 0.67-0.173 0.069 0 0.142 0.006 0.221 0.019 0.081 0.012 0.142 0.027 0.182 0.042zM118.93 18.647l1.378-4.519h1.209l-2.034 5.845c-0.047 0.125-0.108 0.261-0.183 0.408s-0.174 0.286-0.295 0.417c-0.119 0.134-0.267 0.242-0.446 0.323-0.178 0.084-0.394 0.127-0.646 0.127-0.1 0-0.197-0.009-0.291-0.028-0.090-0.016-0.176-0.033-0.258-0.052l-0.005-0.862c0.031 0.003 0.069 0.006 0.113 0.009 0.046 0.003 0.084 0.005 0.112 0.005 0.188 0 0.344-0.023 0.469-0.070 0.126-0.044 0.227-0.116 0.305-0.216 0.082-0.1 0.15-0.234 0.206-0.403l0.366-0.984zM118.151 14.128l1.205 3.797 0.202 1.191-0.782 0.202-1.842-5.189h1.218z"></path>
<path fill="none" stroke="#000" style="stroke: var(--color3, #000)" stroke-linejoin="miter" stroke-linecap="butt" stroke-miterlimit="4" stroke-width="0.8" d="M16 0.4h108.8c8.616 0 15.6 6.984 15.6 15.6s-6.984 15.6-15.6 15.6h-108.8c-8.616 0-15.6-6.984-15.6-15.6s6.984-15.6 15.6-15.6z"></path>
</symbol>
</defs>
</svg>
