<svg width="24" height="25" viewBox="0 0 24 25" fill="none" xmlns="http://www.w3.org/2000/svg">
<mask id="mask0_261_23942" style="mask-type:luminance" maskUnits="userSpaceOnUse" x="0" y="0" width="24" height="25">
<path d="M0 0.5459H24V24.5459H0V0.5459Z" fill="white"/>
</mask>
<g mask="url(#mask0_261_23942)">
<path d="M23.6484 7.62402V20.2568C23.6484 21.0336 23.0189 21.6631 22.2422 21.6631H1.82161C1.04494 21.6631 0.415359 21.0336 0.415359 20.2568L0.351562 7.62402L12.368 7.15527L23.6484 7.62402Z" fill="#FAF8F8"/>
<path d="M23.6484 8.56152H0.351562V7.62402H23.6484V8.56152Z" fill="#EFE9E6"/>
<path d="M2.69531 21.6631H1.75781C0.981094 21.6631 0.351562 21.0336 0.351562 20.2568V7.62402H1.28906V20.2568C1.28906 21.0336 1.91859 21.6631 2.69531 21.6631Z" fill="#EFE9E6"/>
<path d="M23.6484 4.83496V7.62402H0.351562V4.83496C0.351562 4.05824 0.981094 3.42871 1.75781 3.42871H22.2422C23.0189 3.42871 23.6484 4.05824 23.6484 4.83496Z" fill="#596C76"/>
<path d="M11.028 6.80371C10.641 6.80371 10.3273 6.4889 10.3273 6.10059C10.3273 5.71227 10.641 5.39746 11.028 5.39746H20.7927C21.1797 5.39746 21.4934 5.71227 21.4934 6.10059C21.4934 6.4889 21.1797 6.80371 20.7927 6.80371H11.028Z" fill="#475A61"/>
<path d="M8.59273 6.10059C8.59273 6.4889 8.27909 6.80371 7.89209 6.80371C7.50514 6.80371 7.19141 6.4889 7.19141 6.10059C7.19141 5.71227 7.50514 5.39746 7.89209 5.39746C8.27909 5.39746 8.59273 5.71227 8.59273 6.10059Z" fill="#475A61"/>
<path d="M8.38436 6.60156L8.98778 5.99833L8.37189 6.05359L8.38436 6.60156Z" fill="#475A61"/>
<path d="M7.41095 5.58984L7.99984 5.00311L7.87356 5.49103L7.41095 5.58984Z" fill="#475A61"/>
<path d="M5.64754 6.10059C5.64754 6.4889 5.33386 6.80371 4.9469 6.80371C4.55995 6.80371 4.24622 6.4889 4.24622 6.10059C4.24622 5.71227 4.55995 5.39746 4.9469 5.39746C5.33386 5.39746 5.64754 5.71227 5.64754 6.10059Z" fill="#475A61"/>
<path d="M5.44026 6.6001L6.02067 6.01421L5.42657 6.05339L5.44026 6.6001Z" fill="#475A61"/>
<path d="M4.46484 5.58984L5.04473 5.00578L4.92745 5.49103L4.46484 5.58984Z" fill="#475A61"/>
<path d="M2.59664 6.10059C2.59664 6.4889 2.28295 6.80371 1.896 6.80371C1.50905 6.80371 1.19531 6.4889 1.19531 6.10059C1.19531 5.71227 1.50905 5.39746 1.896 5.39746C2.28295 5.39746 2.59664 5.71227 2.59664 6.10059Z" fill="#475A61"/>
<path d="M2.40326 6.58545L2.99956 5.96736L2.38367 6.03209L2.40326 6.58545Z" fill="#475A61"/>
<path d="M1.41418 5.58984L1.95897 5.02556L1.87679 5.49103L1.41418 5.58984Z" fill="#475A61"/>
<path d="M9.20138 5.49121C9.20138 5.87952 8.88769 6.19434 8.50074 6.19434C8.11378 6.19434 7.80005 5.87952 7.80005 5.49121C7.80005 5.1029 8.11378 4.78809 8.50074 4.78809C8.88769 4.78809 9.20138 5.1029 9.20138 5.49121Z" fill="#BDF189"/>
<path d="M10.5475 5.58874L11.1555 4.97979L11.0137 5.64893L10.5475 5.58874Z" fill="#475A61"/>
<path d="M21.2967 6.58887L21.913 5.9711L21.4357 6.12959L21.2967 6.58887Z" fill="#475A61"/>
<path d="M6.25277 5.49121C6.25277 5.87952 5.93913 6.19434 5.55213 6.19434C5.16517 6.19434 4.85144 5.87952 4.85144 5.49121C4.85144 5.1029 5.16517 4.78809 5.55213 4.78809C5.93913 4.78809 6.25277 5.1029 6.25277 5.49121Z" fill="#FFC682"/>
<path d="M3.18478 5.49121C3.18478 5.87952 2.87109 6.19434 2.48413 6.19434C2.09713 6.19434 1.78345 5.87952 1.78345 5.49121C1.78345 5.1029 2.09713 4.78809 2.48413 4.78809C2.87109 4.78809 3.18478 5.1029 3.18478 5.49121Z" fill="#F87719"/>
<path d="M11.6358 6.19434C11.2489 6.19434 10.9352 5.87952 10.9352 5.49121C10.9352 5.1029 11.2489 4.78809 11.6358 4.78809H21.4006C21.7875 4.78809 22.1013 5.1029 22.1013 5.49121C22.1013 5.87952 21.7875 6.19434 21.4006 6.19434H11.6358Z" fill="#FAF8F8"/>
<path d="M17.2734 14.6787C17.2734 17.6041 14.9019 19.9756 11.9766 19.9756C9.05119 19.9756 6.67969 17.6041 6.67969 14.6787C6.67969 11.7533 9.05119 9.38184 11.9766 9.38184C14.9019 9.38184 17.2734 11.7533 17.2734 14.6787Z" fill="#F87719"/>
<path d="M12.4453 19.955C12.2911 19.9686 12.1345 19.9756 11.9766 19.9756C9.05109 19.9756 6.67969 17.6042 6.67969 14.6787C6.67969 11.7532 9.05109 9.38184 11.9766 9.38184C12.1345 9.38184 12.2911 9.38892 12.4453 9.40246C9.73922 9.63965 7.61719 11.9112 7.61719 14.6787C7.61719 17.4462 9.73922 19.7178 12.4453 19.955Z" fill="#E56F1A"/>
<path d="M13.9275 14.1347L11.6569 12.6875C11.2273 12.4138 10.6647 12.7223 10.6647 13.2318V16.126C10.6647 16.6355 11.2273 16.9441 11.6569 16.6703L13.9275 15.2232C14.3255 14.9695 14.3255 14.3884 13.9275 14.1347Z" fill="#FAF8F8"/>
<path d="M3.12908 5.65527C3.12908 6.04359 2.81301 6.3584 2.4231 6.3584C2.03324 6.3584 1.71716 6.04359 1.71716 5.65527C1.71716 5.26696 2.03324 4.95215 2.4231 4.95215C2.81301 4.95215 3.12908 5.26696 3.12908 5.65527Z" stroke="black" stroke-width="0.5" stroke-miterlimit="10" stroke-linecap="round" stroke-linejoin="round"/>
<path d="M6.18859 5.65527C6.18859 6.04359 5.87252 6.3584 5.48261 6.3584C5.0927 6.3584 4.77667 6.04359 4.77667 5.65527C4.77667 5.26696 5.0927 4.95215 5.48261 4.95215C5.87252 4.95215 6.18859 5.26696 6.18859 5.65527Z" stroke="black" stroke-width="0.5" stroke-miterlimit="10" stroke-linecap="round" stroke-linejoin="round"/>
<path d="M9.15954 5.65527C9.15954 6.04359 8.84346 6.3584 8.45356 6.3584C8.0637 6.3584 7.74762 6.04359 7.74762 5.65527C7.74762 5.26696 8.0637 4.95215 8.45356 4.95215C8.84346 4.95215 9.15954 5.26696 9.15954 5.65527Z" stroke="black" stroke-width="0.5" stroke-miterlimit="10" stroke-linecap="round" stroke-linejoin="round"/>
<path d="M19.7429 7.74121H23.6484" stroke="black" stroke-width="0.5" stroke-miterlimit="10" stroke-linecap="round" stroke-linejoin="round"/>
<path d="M0.351562 7.76465H18.077" stroke="black" stroke-width="0.5" stroke-miterlimit="10" stroke-linecap="round" stroke-linejoin="round"/>
<path d="M21.4965 6.3584H11.613C11.2231 6.3584 10.907 6.04359 10.907 5.65527C10.907 5.26696 11.2231 4.95215 11.613 4.95215H21.4965C21.8864 4.95215 22.2025 5.26696 22.2025 5.65527C22.2025 6.04359 21.8864 6.3584 21.4965 6.3584Z" stroke="black" stroke-width="0.5" stroke-miterlimit="10" stroke-linecap="round" stroke-linejoin="round"/>
<path d="M0.351562 18.9678V20.2568C0.351562 21.0335 0.981187 21.6631 1.75781 21.6631H22.2422C23.0188 21.6631 23.6484 21.0335 23.6484 20.2568V4.83496C23.6484 4.05834 23.0188 3.42871 22.2422 3.42871H1.75781C0.981187 3.42871 0.351562 4.05834 0.351562 4.83496V17.3271" stroke="black" stroke-width="0.5" stroke-miterlimit="10" stroke-linecap="round" stroke-linejoin="round"/>
<path d="M10.6647 15.593V16.1261C10.6647 16.6355 11.2273 16.9441 11.6569 16.6703L13.9275 15.2232C14.3255 14.9695 14.3255 14.3884 13.9275 14.1347L11.6569 12.6876C11.2273 12.4138 10.6647 12.7224 10.6647 13.2318V13.9524" stroke="black" stroke-width="0.5" stroke-miterlimit="10" stroke-linecap="round" stroke-linejoin="round"/>
<path d="M16.0164 11.2527C16.8005 12.1763 17.2734 13.3723 17.2734 14.6787C17.2734 17.6041 14.902 19.9756 11.9766 19.9756C9.05119 19.9756 6.67969 17.6041 6.67969 14.6787C6.67969 11.7533 9.05119 9.38184 11.9766 9.38184C13.0037 9.38184 13.9626 9.6742 14.7745 10.1803" stroke="black" stroke-width="0.5" stroke-miterlimit="10" stroke-linecap="round" stroke-linejoin="round"/>
</g>
</svg>
