<svg xmlns="http://www.w3.org/2000/svg" width="32" height="32"><path fill="#ffd93b" d="M9.4 24.034c8.081 0 14.632-6.552 14.632-14.633 0-3.581-1.29-6.857-3.425-9.4 6.597 2.118 11.374 8.296 11.374 15.597 0 9.049-7.335 16.384-16.384 16.384-7.3 0-13.479-4.777-15.597-11.374a14.567 14.567 0 0 0 9.4 3.426z"/><path fill="#f4c534" d="M25.723 2.738a16.286 16.286 0 0 1 3.508 10.109c0 9.049-7.335 16.384-16.384 16.384-3.82 0-7.325-1.317-10.109-3.508 2.998 3.806 7.638 6.259 12.859 6.259 9.049 0 16.384-7.335 16.384-16.384 0-5.221-2.452-9.86-6.259-12.859z"/><path fill="#ffd83b" d="m8.2 6.396 1.688 3.421 3.774.548-2.731 2.662.644 3.759L8.2 15.011l-3.376 1.775.644-3.759-2.731-2.662 3.774-.548zM17.719 5.302l.875 1.774 1.957.284-1.416 1.38.335 1.948-1.75-.92-1.75.92.335-1.948-1.416-1.38 1.957-.284z"/></svg>