<svg xmlns="http://www.w3.org/2000/svg" width="32" height="32"><path fill="#f0c419" d="M16 0c-.213 0-.427.213-.427.64v3.2c0 .213.213.427.427.427s.64-.213.64-.427V.64c0-.427-.427-.64-.64-.64zM16 27.733c-.213 0-.427.213-.427.64v3.2c0 .213.213.427.427.427s.64-.213.64-.427v-3.2c0-.427-.427-.64-.64-.64zM31.573 15.573h-3.2c-.427 0-.64.213-.64.427s.213.64.64.64h3.2c.213 0 .427-.427.427-.64s-.213-.427-.427-.427zM4.267 16a.46.46 0 0 0-.427-.427H.64c-.427 0-.64.213-.64.427s.213.64.64.64h3.2c.213 0 .427-.427.427-.64zM24.747 7.893s.213 0 .213-.213l3.2-2.987c.213-.213.213-.64 0-.853s-.64-.213-.853 0l-2.987 3.2c-.213.213-.213.427 0 .64 0 .213.213.213.427.213zM7.04 24.32l-3.2 2.987c-.213.213-.213.64 0 .853.213 0 .213.213.427.213s.213-.213.427-.213l2.987-3.2c.213-.213.213-.427 0-.64s-.427-.213-.64 0zM24.96 24.32c-.213-.213-.427-.213-.64 0s-.213.427 0 .64l2.987 3.2c.213 0 .213.213.427.213s.213-.213.427-.213.213-.64 0-.853l-3.2-2.987zM4.693 3.84c-.213-.213-.64-.213-.853 0s-.213.64 0 .853l3.2 2.987c0 .213.213.213.213.213.213 0 .427 0 .427-.213.213-.213.213-.427 0-.64l-2.987-3.2zM26.88 11.52s.213.213.427.213h.213l1.493-.64c.213-.213.427-.427.213-.64 0-.427-.427-.427-.64-.427l-1.493.64c-.213.213-.427.427-.213.853zM5.12 20.48c0-.213-.427-.213-.64-.213l-1.493.64c-.213.213-.427.427-.213.64a.46.46 0 0 0 .427.427h.213l1.493-.64c.213-.213.427-.427.213-.853zM29.013 20.693l-1.493-.64c-.213 0-.427 0-.64.427-.213.213 0 .427.213.64l1.493.64h.213c.213 0 .427-.213.64-.427 0-.213-.213-.427-.427-.64zM2.987 11.307l1.493.64h.213a.46.46 0 0 0 .427-.427c.213-.213 0-.427-.213-.64l-1.493-.64c-.427 0-.64 0-.853.427 0 .213.213.427.427.64zM21.333 27.093c-.213-.213-.427-.427-.853-.213-.213 0-.213.427-.213.64l.64 1.493c0 .213.213.213.427.213h.213c.427 0 .427-.427.427-.64l-.64-1.493zM11.307 5.333l.213-.213c.213 0 .213-.427.213-.64l-.64-1.493c-.213-.213-.427-.427-.64-.213-.427 0-.427.427-.427.64l.64 1.493c.213.213.427.427.64.427zM11.52 26.88c-.213-.213-.427 0-.64.213l-.64 1.493c0 .427 0 .64.427.853h.213a.46.46 0 0 0 .427-.427l.64-1.493c0-.213 0-.427-.427-.64zM20.693 5.12c.213 0 .213 0 .427-.213l.64-1.493c0-.427 0-.64-.427-.853-.213 0-.427.213-.64.427l-.64 1.493c0 .213 0 .427.427.64h.213zM26.667 16c0 5.891-4.776 10.667-10.667 10.667S5.333 21.891 5.333 16 10.109 5.333 16 5.333 26.667 10.109 26.667 16z"/><path fill="#ede21b" d="M24.107 16c0 4.477-3.629 8.107-8.107 8.107S7.893 20.478 7.893 16c0-4.477 3.629-8.107 8.107-8.107s8.107 3.629 8.107 8.107z"/></svg>